<?xml version="1.0" standalone="no"?>
<!DOCTYPE svg PUBLIC "-//W3C//DTD SVG 20010904//EN"
 "http://www.w3.org/TR/2001/REC-SVG-20010904/DTD/svg10.dtd">
<svg version="1.0" xmlns="http://www.w3.org/2000/svg"
 width="3933.000000pt" height="3500.000000pt" viewBox="0 0 3933.000000 3500.000000"
 preserveAspectRatio="xMidYMid meet">
<metadata>
Created by potrace 1.16, written by Peter Selinger 2001-2019
</metadata>
<g transform="translate(0.000000,3500.000000) scale(0.100000,-0.100000)"
fill="#000000" stroke="none">
<path d="M13440 33310 l0 -1310 775 0 775 0 -2 178 -3 177 -582 3 -583 2 0
1130 0 1130 -190 0 -190 0 0 -1310z"/>
<path d="M15253 33728 c3 -784 6 -903 20 -971 36 -168 99 -309 184 -413 149
-180 397 -314 648 -349 239 -34 305 -34 545 1 218 31 438 141 588 294 91 92
149 185 192 307 64 178 62 153 67 1131 l5 892 -196 0 -196 0 -1 -837 c-1 -913
-1 -912 -24 -1008 -42 -183 -193 -342 -390 -410 -180 -63 -441 -66 -615 -9
-101 34 -194 89 -266 159 -80 78 -114 137 -146 253 -21 75 -22 95 -25 965 l-4
887 -195 0 -196 0 5 -892z"/>
<path d="M17805 34611 c-3 -5 -1 -12 5 -16 5 -3 43 -45 82 -93 40 -48 81 -96
90 -107 9 -11 30 -36 45 -56 25 -33 196 -239 262 -315 14 -17 62 -75 106 -129
44 -55 96 -117 116 -140 19 -22 53 -62 75 -90 21 -27 45 -56 52 -64 15 -15
105 -125 164 -199 l36 -46 -36 -46 c-21 -26 -61 -76 -90 -111 -30 -35 -81 -97
-115 -138 -34 -41 -80 -95 -102 -121 -22 -26 -76 -91 -120 -145 -44 -54 -92
-112 -106 -129 -15 -17 -49 -58 -77 -91 -27 -33 -76 -91 -109 -130 -32 -38
-85 -103 -118 -143 -98 -120 -127 -156 -182 -221 -29 -34 -53 -66 -53 -72 0
-5 91 -9 228 -9 l228 0 56 68 c148 175 204 243 260 312 33 41 63 77 67 80 3 3
24 28 45 55 22 28 56 68 75 90 20 23 72 85 116 140 44 54 98 120 120 145 22
26 65 77 95 114 30 36 57 65 61 64 4 -2 58 -64 119 -138 62 -74 122 -146 134
-160 11 -14 37 -45 56 -70 19 -25 104 -128 188 -230 160 -193 188 -227 312
-379 l74 -91 228 0 c125 0 228 3 228 8 0 4 62 7 137 7 131 0 204 5 283 20 75
14 266 57 290 65 14 5 66 20 115 35 162 48 323 110 474 181 51 24 95 44 97 44
2 0 -6 -21 -19 -47 -74 -148 -16 -261 135 -263 95 -1 360 69 563 150 68 27
379 178 440 213 11 7 52 30 90 51 121 68 529 307 557 327 14 10 28 19 31 19 5
0 288 173 402 245 62 39 60 29 -5 -35 -14 -14 -66 -74 -115 -134 -50 -60 -119
-143 -155 -185 -36 -42 -73 -87 -82 -99 -13 -20 -19 -21 -40 -11 -62 28 -148
-83 -148 -192 0 -49 -3 -55 -85 -157 -380 -476 -913 -1188 -1088 -1453 -148
-224 -178 -300 -143 -367 18 -35 55 -68 85 -75 34 -8 109 23 198 83 94 63 140
105 201 185 26 33 54 69 63 80 58 70 148 187 185 240 11 16 35 50 53 75 42 59
145 212 151 225 8 16 149 253 192 322 21 34 38 65 38 69 0 3 8 18 19 32 30 43
108 188 163 302 78 165 86 183 94 213 8 34 25 43 54 27 39 -21 173 -38 279
-35 139 3 200 11 350 47 68 16 124 28 125 26 43 -95 119 -179 195 -217 57 -29
157 -61 245 -78 86 -17 387 -23 501 -11 179 20 249 29 325 43 94 16 92 16 205
40 44 10 91 20 105 22 64 13 291 79 440 129 148 50 197 69 320 121 98 41 362
177 410 211 57 39 72 70 50 98 -17 19 -57 18 -88 -4 -66 -45 -266 -142 -457
-222 -77 -32 -331 -118 -425 -144 -30 -8 -80 -22 -110 -30 -54 -16 -251 -63
-300 -72 -14 -3 -68 -13 -120 -23 -188 -37 -226 -42 -452 -61 -166 -14 -311
-3 -468 36 -36 9 -87 26 -115 39 -52 23 -155 122 -155 149 0 9 27 25 69 41 86
32 337 159 363 181 10 10 18 25 18 35 0 9 4 19 9 21 5 2 20 21 35 42 54 80 22
173 -66 197 -110 29 -313 -54 -434 -179 -49 -51 -116 -179 -118 -224 -1 -31
-10 -36 -131 -64 -241 -55 -418 -59 -568 -12 -41 12 -41 15 -7 93 9 22 19 47
22 55 6 18 148 195 468 586 182 222 231 274 296 311 36 21 78 46 92 55 15 10
40 25 56 34 36 20 237 157 291 199 185 141 350 295 401 376 29 47 36 118 13
145 -22 27 -77 46 -113 38 -51 -11 -145 -63 -231 -127 -93 -70 -410 -385 -540
-537 -123 -144 -118 -139 -230 -212 -210 -137 -600 -378 -610 -378 -3 0 -29
-16 -59 -35 -30 -19 -57 -35 -60 -35 -2 0 -78 -43 -168 -96 -89 -53 -237 -139
-328 -192 -91 -52 -174 -103 -185 -113 -11 -10 -54 -33 -95 -52 -41 -19 -106
-49 -145 -67 -157 -74 -373 -146 -507 -171 -53 -10 -76 -10 -108 0 -38 11 -40
14 -40 50 0 28 10 54 35 91 19 29 35 54 35 56 0 16 97 125 134 152 25 18 46
36 47 40 0 4 2 15 4 24 5 26 -33 68 -61 68 -24 0 -100 -43 -228 -130 -112 -75
-303 -159 -561 -246 -337 -113 -520 -153 -733 -161 -167 -6 -219 4 -258 50
-38 46 -30 112 27 224 50 99 84 138 154 172 54 27 144 87 323 215 62 44 133
95 157 111 24 17 105 77 180 135 76 58 161 123 190 145 88 67 270 209 275 215
4 5 255 207 409 330 287 228 538 495 571 607 11 36 11 46 -4 68 -14 22 -24 25
-69 25 -94 0 -231 -62 -447 -201 -123 -79 -134 -87 -238 -164 -37 -28 -87 -65
-112 -83 -117 -84 -360 -286 -525 -437 -349 -318 -695 -689 -832 -891 -30 -43
-53 -65 -83 -79 -38 -17 -41 -22 -37 -49 3 -17 -1 -38 -8 -46 -13 -16 -56
-126 -58 -147 0 -7 -2 -13 -4 -13 -5 0 -75 79 -98 110 -11 15 -65 82 -120 147
-193 231 -280 337 -324 392 -25 31 -50 61 -56 66 -7 6 -33 37 -58 70 -26 33
-84 105 -131 160 l-84 99 19 26 c11 14 45 54 75 90 48 57 112 134 244 295 19
23 68 81 108 129 41 48 102 121 135 163 34 41 80 97 102 123 22 26 60 72 85
102 25 30 69 84 98 119 151 181 172 207 172 213 0 3 -103 6 -229 6 l-230 0
-38 -47 c-21 -27 -62 -77 -92 -113 -29 -36 -61 -74 -70 -85 -62 -75 -232 -284
-259 -318 -18 -23 -50 -62 -70 -86 -20 -24 -48 -59 -62 -77 -25 -32 -63 -78
-159 -194 -30 -36 -55 -66 -56 -68 -2 -2 -154 179 -300 357 -33 40 -76 93 -95
116 -19 23 -71 86 -115 140 -44 54 -96 117 -115 140 -19 23 -71 85 -114 138
l-79 97 -228 0 c-130 0 -230 -4 -234 -9z m4554 -432 c-105 -113 -158 -161
-424 -379 -102 -84 -340 -277 -370 -300 -90 -69 -272 -208 -370 -282 -60 -46
-148 -113 -195 -149 -47 -36 -107 -81 -134 -100 -26 -18 -61 -43 -76 -54 -140
-100 -154 -108 -132 -78 38 53 544 558 671 669 340 298 639 525 858 653 95 55
267 141 272 136 2 -3 -43 -55 -100 -116z m2845 -134 c-24 -36 -142 -139 -289
-250 -71 -54 -148 -112 -170 -129 -22 -17 -51 -40 -65 -52 -14 -12 -38 -30
-55 -39 -23 -14 -17 -5 25 40 187 201 331 321 520 433 47 27 54 27 34 -3z
m-300 -1371 c9 -3 16 -10 16 -14 0 -16 -54 -72 -108 -112 -51 -38 -269 -148
-293 -148 -5 0 2 23 18 51 49 90 175 184 283 213 66 18 64 17 84 10z m-1414
-495 c-11 -30 -29 -70 -39 -89 -11 -19 -34 -64 -53 -100 -19 -36 -56 -103 -83
-150 -26 -47 -70 -125 -98 -175 -244 -435 -528 -836 -752 -1060 -128 -128
-221 -171 -202 -93 9 34 117 210 238 388 103 152 144 207 380 521 65 85 142
188 173 229 32 41 68 89 81 105 13 17 39 50 57 74 18 24 44 58 58 76 14 18 40
52 58 76 41 54 72 94 139 179 29 36 53 69 53 74 0 5 2 7 5 4 3 -3 -4 -30 -15
-59z"/>
<path d="M22340 33148 c-40 -62 -158 -188 -176 -188 -19 0 -26 -35 -13 -64 14
-30 51 -43 82 -29 65 30 227 224 227 272 0 23 -41 61 -66 61 -14 0 -32 -18
-54 -52z"/>
<path d="M17140 31733 c-23 -8 -70 -55 -86 -85 -19 -36 -18 -119 2 -161 33
-69 132 -99 204 -62 25 13 29 13 34 0 3 -8 12 -15 21 -15 12 0 15 16 15 90 l0
90 -70 0 c-68 0 -70 -1 -70 -25 0 -23 3 -25 50 -25 28 0 50 -2 50 -5 0 -24
-34 -62 -64 -73 -79 -29 -137 25 -132 123 2 40 8 52 34 76 46 41 103 41 134
-1 42 -57 92 -29 52 29 -29 41 -120 64 -174 44z"/>
<path d="M13450 31570 l0 -160 25 0 25 0 0 102 c0 56 2 99 5 96 3 -3 20 -47
38 -99 27 -76 37 -95 55 -97 24 -4 28 4 79 143 l18 50 3 -98 3 -98 27 3 27 3
3 158 3 157 -39 0 -39 0 -38 -115 c-21 -62 -41 -112 -45 -110 -3 2 -22 54 -41
114 l-34 111 -37 0 -38 0 0 -160z"/>
<path d="M15366 31722 c-3 -5 -17 -44 -32 -88 -14 -43 -37 -108 -50 -143 -30
-80 -30 -83 3 -79 22 2 31 11 44 48 16 44 17 45 63 46 51 1 65 -10 81 -60 8
-24 17 -32 39 -34 27 -3 28 -2 22 25 -4 15 -27 82 -52 148 -24 67 -44 126 -44
133 0 13 -66 17 -74 4z"/>
<path d="M18939 31703 c-6 -15 -19 -54 -30 -86 -11 -32 -31 -88 -44 -124 -31
-82 -31 -85 2 -81 22 2 30 12 42 43 19 50 21 51 77 50 46 0 47 -1 64 -45 14
-36 23 -46 44 -48 37 -5 34 9 -28 173 -52 136 -55 140 -85 143 -26 3 -33 -1
-42 -25z"/>
<path d="M20629 31728 c-11 -37 -8 -38 72 -38 43 0 79 -2 79 -5 0 -3 -7 -13
-14 -22 -86 -104 -157 -208 -154 -227 3 -20 9 -21 126 -23 l122 -1 0 24 c0 23
-2 24 -85 24 -47 0 -85 2 -85 4 0 2 38 55 85 118 47 62 85 121 85 131 0 15
-12 17 -115 17 -63 0 -115 -1 -116 -2z"/>
<path d="M22382 31573 l3 -158 25 0 25 0 3 158 3 157 -31 0 -31 0 3 -157z"/>
<path d="M23980 31570 c0 -153 1 -160 20 -160 19 0 20 7 20 116 0 63 4 113 8
110 4 -2 39 -54 77 -115 62 -97 73 -111 98 -111 l27 0 0 160 0 160 -25 0 c-24
0 -24 0 -27 -112 l-3 -111 -68 111 c-62 102 -71 112 -98 112 l-29 0 0 -160z"/>
<path d="M25772 31573 l3 -158 115 0 c108 0 115 1 115 20 0 18 -8 20 -92 23
l-93 3 0 44 0 44 83 3 c76 3 82 5 85 26 3 21 1 22 -82 22 l-86 0 0 45 0 45 90
0 c83 0 90 1 90 20 0 19 -7 20 -115 20 l-116 0 3 -157z"/>
<path d="M12563 29940 c-61 -4 -115 -10 -120 -13 -5 -3 -29 -8 -53 -12 -73
-10 -219 -55 -311 -95 -325 -139 -607 -409 -750 -717 -63 -134 -76 -172 -97
-268 -6 -27 -17 -72 -23 -100 -7 -28 -14 -141 -15 -260 -3 -219 5 -292 47
-440 10 -38 21 -79 24 -90 8 -34 112 -238 149 -294 72 -107 222 -269 303 -328
21 -15 45 -34 53 -41 30 -25 138 -90 202 -121 69 -32 258 -103 258 -96 0 3 12
0 26 -5 36 -14 151 -36 264 -50 278 -36 651 3 974 102 39 12 76 22 81 24 6 1
60 21 120 46 l110 44 3 617 2 617 -485 0 -485 0 0 -190 0 -190 275 0 275 0 0
-293 0 -293 -87 -27 c-103 -32 -232 -64 -288 -72 -22 -3 -64 -10 -94 -15 -71
-13 -262 -13 -332 0 -30 5 -70 12 -89 15 -19 3 -79 19 -133 36 -335 103 -596
364 -692 694 -92 315 -53 653 105 915 77 127 207 261 345 355 63 43 212 112
250 116 6 1 18 5 27 10 74 40 431 55 601 25 222 -39 366 -88 600 -203 81 -40
150 -73 152 -73 3 0 5 97 5 216 l0 215 -37 15 c-21 8 -47 19 -58 24 -137 62
-433 155 -555 175 -19 3 -60 10 -90 15 -83 14 -331 19 -457 10z"/>
<path d="M14350 28470 l0 -1440 195 0 195 0 0 1440 0 1440 -195 0 -195 0 0
-1440z"/>
<path d="M17567 29903 c-4 -3 -7 -626 -7 -1384 l0 -1378 28 -14 c29 -15 139
-55 169 -62 445 -99 744 -89 1008 35 232 108 413 329 480 586 38 147 44 457
11 582 -8 28 -13 52 -11 52 2 0 -9 36 -25 81 -143 396 -459 607 -850 567 -97
-10 -242 -55 -315 -98 -27 -16 -62 -36 -77 -45 l-28 -16 0 551 0 550 -188 0
c-104 0 -192 -3 -195 -7z m943 -1312 c104 -30 197 -100 264 -199 98 -143 137
-351 102 -542 -26 -143 -67 -229 -156 -324 -58 -62 -108 -96 -195 -131 -67
-27 -77 -29 -220 -28 -82 0 -168 6 -190 11 -22 6 -53 14 -70 17 -16 2 -43 9
-60 13 l-30 8 -3 506 -2 506 31 26 c55 47 167 108 240 131 82 26 211 28 289 6z"/>
<path d="M21480 28470 l0 -1440 190 0 190 0 0 1440 0 1440 -190 0 -190 0 0
-1440z"/>
<path d="M9511 29539 c-77 -17 -200 -70 -278 -118 l-33 -21 0 -160 c0 -88 3
-160 6 -160 3 0 38 29 77 65 73 67 182 128 252 142 76 15 206 8 256 -15 137
-60 208 -202 179 -359 -13 -72 -83 -229 -128 -286 -15 -19 -34 -45 -42 -57 -8
-12 -42 -57 -75 -99 -179 -230 -220 -278 -427 -504 -76 -82 -138 -156 -138
-163 0 -12 99 -14 625 -14 l625 0 0 125 0 125 -364 2 -363 3 104 115 c185 204
264 304 360 456 15 23 63 122 63 129 0 3 7 19 15 35 9 17 13 30 11 30 -3 0 2
17 11 38 11 25 17 74 18 147 3 123 -13 206 -51 267 -13 21 -24 42 -24 46 0 20
-159 159 -210 183 -74 36 -84 39 -165 55 -94 19 -202 16 -304 -7z"/>
<path d="M20040 28961 c-165 -20 -317 -91 -437 -205 l-43 -40 0 -213 c0 -117
3 -213 8 -213 4 0 13 9 19 20 25 39 209 180 287 220 240 121 500 90 579 -67
27 -53 51 -186 46 -247 -4 -38 -5 -38 -74 -61 -278 -92 -489 -171 -567 -212
-97 -51 -211 -147 -250 -211 -12 -20 -25 -39 -29 -42 -14 -10 -50 -137 -55
-195 -12 -120 45 -274 133 -359 175 -171 463 -179 737 -21 33 19 71 42 82 50
20 15 22 14 27 -15 4 -17 26 -49 50 -74 107 -107 318 -104 502 5 111 66 105
56 105 186 0 67 -4 113 -10 113 -5 0 -38 -17 -72 -38 -62 -38 -118 -62 -144
-62 -8 0 -23 9 -34 20 -19 19 -20 33 -20 538 0 623 -5 683 -67 805 -69 139
-209 249 -378 297 -79 23 -287 34 -395 21z m460 -1273 l0 -273 -53 -39 c-93
-69 -150 -90 -255 -94 -103 -4 -136 6 -198 60 -57 50 -78 101 -78 188 0 127
58 202 220 281 95 47 109 53 219 94 39 15 84 33 100 40 17 8 33 14 38 14 4 1
7 -122 7 -271z"/>
<path d="M16054 28934 c-5 -1 -43 -7 -84 -14 -210 -35 -383 -122 -533 -269
-138 -134 -219 -278 -262 -466 -18 -81 -22 -350 -6 -412 6 -21 12 -50 15 -65
14 -81 80 -221 147 -312 107 -146 300 -288 462 -340 235 -75 471 -78 707 -9
160 47 272 114 399 237 130 126 204 250 252 422 20 68 23 103 23 249 0 108 -5
187 -13 215 -7 25 -15 52 -16 61 -15 74 -86 224 -143 301 -45 59 -178 191
-232 229 -96 68 -239 128 -370 154 -70 14 -308 28 -346 19z m273 -369 c110
-29 200 -81 282 -164 167 -168 216 -387 145 -637 -46 -160 -198 -310 -376
-370 -72 -24 -99 -27 -203 -28 -207 -1 -329 46 -457 175 -107 107 -147 190
-167 347 -26 203 48 417 188 544 63 57 162 112 239 133 68 18 278 18 349 0z"/>
<path d="M9633 27256 c-164 -53 -277 -155 -367 -333 -51 -102 -91 -229 -102
-325 -23 -201 -12 -417 27 -563 11 -38 21 -78 24 -88 8 -36 59 -134 103 -200
85 -127 203 -211 344 -243 29 -7 216 -7 243 0 226 54 404 260 475 551 34 140
45 324 28 505 -19 210 -106 412 -237 553 -137 147 -348 203 -538 143z m266
-255 c81 -42 158 -163 190 -301 25 -111 34 -194 34 -320 -1 -325 -86 -546
-238 -616 -102 -48 -205 -25 -288 65 -104 111 -148 277 -149 557 0 203 20 315
78 439 35 76 107 157 158 180 49 21 169 19 215 -4z"/>
<path d="M11420 23745 l0 -1655 245 0 245 0 0 715 0 715 920 0 920 0 0 -715 0
-715 240 0 240 0 0 1655 0 1655 -240 0 -240 0 0 -715 0 -715 -920 0 -920 0 0
715 0 715 -245 0 -245 0 0 -1655z"/>
<path d="M26597 25394 c-4 -4 -7 -749 -7 -1656 l0 -1648 223 2 222 3 0 1650 0
1650 -216 3 c-118 1 -218 -1 -222 -4z"/>
<path d="M22015 25181 c-70 -18 -143 -83 -176 -156 -66 -145 43 -335 207 -360
97 -14 215 48 262 139 87 168 -18 364 -203 380 -33 3 -73 1 -90 -3z"/>
<path d="M27815 25181 c-75 -19 -150 -85 -180 -157 -22 -52 -19 -149 6 -204
38 -84 150 -160 236 -160 58 0 129 34 178 84 68 68 83 104 80 191 -2 103 -48
176 -142 228 -36 20 -134 30 -178 18z"/>
<path d="M9635 24103 l0 -868 148 -3 147 -3 0 871 0 870 -148 0 -148 0 1 -867z"/>
<path d="M23002 24320 c-325 -322 -403 -404 -400 -422 3 -23 4 -23 191 -26
l187 -2 0 -578 c0 -595 6 -708 40 -823 22 -71 75 -167 118 -212 68 -72 208
-152 317 -183 117 -32 380 -29 500 7 17 5 32 9 35 8 7 -1 102 36 173 68 l57
26 0 213 0 213 -72 -39 c-304 -164 -587 -159 -674 11 -14 29 -28 61 -30 73 -3
11 -9 43 -14 70 -6 28 -10 284 -10 597 l0 549 345 0 345 0 0 200 0 200 -345 0
-345 0 0 225 c0 124 -3 225 -7 225 -5 0 -189 -180 -411 -400z"/>
<path d="M29190 24702 c-8 -9 -189 -188 -402 -396 -331 -324 -388 -383 -388
-407 l0 -29 190 0 190 0 1 -567 c1 -636 2 -692 19 -766 15 -68 48 -152 78
-202 65 -108 229 -221 377 -261 80 -22 299 -30 389 -15 102 18 251 66 320 104
l60 32 -1 188 c-1 103 -2 195 -2 205 -1 16 -12 13 -86 -24 -210 -107 -403
-141 -529 -94 -68 26 -125 86 -157 166 l-23 59 -4 588 -4 587 346 0 346 0 0
200 0 200 -345 0 -345 0 0 225 c0 124 -3 225 -7 225 -5 0 -15 -8 -23 -18z"/>
<path d="M17989 24299 c-105 -21 -130 -29 -199 -64 -196 -99 -305 -257 -318
-458 -12 -196 76 -375 260 -524 90 -73 234 -168 393 -258 66 -38 122 -72 123
-77 2 -4 8 -8 14 -8 5 0 44 -24 87 -54 105 -74 128 -122 122 -249 -1 -25 -78
-105 -124 -128 -66 -34 -179 -51 -256 -38 -157 26 -373 116 -544 228 -43 28
-80 51 -82 51 -3 0 -5 -107 -5 -238 l0 -238 43 -21 c255 -125 440 -173 671
-173 267 0 455 67 601 214 117 119 165 234 165 399 0 162 -50 275 -184 414
-128 134 -185 176 -451 328 -313 180 -369 232 -367 341 0 58 28 102 82 136 92
56 229 59 403 7 82 -24 249 -100 336 -153 32 -20 64 -36 70 -36 8 0 11 64 11
219 l0 218 -88 41 c-103 48 -278 105 -377 123 -105 19 -288 18 -386 -2z"/>
<path d="M24975 24312 c-56 -6 -178 -33 -238 -53 -115 -39 -205 -94 -298 -184
l-59 -57 0 -239 c0 -152 4 -239 10 -239 5 0 43 33 82 73 88 87 176 151 283
204 122 62 183 76 315 77 154 1 214 -18 291 -94 72 -72 89 -119 96 -275 l5
-120 -183 -62 c-453 -152 -523 -181 -641 -260 -133 -89 -225 -201 -267 -325
-27 -79 -29 -252 -5 -335 38 -130 134 -245 258 -308 126 -64 238 -78 401 -49
139 24 336 110 417 181 16 14 18 13 24 -13 28 -111 156 -184 321 -184 119 0
211 30 356 117 l77 47 0 131 c0 73 -3 134 -6 138 -4 3 -32 -10 -63 -30 -82
-53 -131 -73 -178 -73 -81 0 -77 -38 -79 714 l-1 661 -25 82 c-73 244 -266
406 -553 464 -55 11 -270 18 -340 11z m485 -1473 c0 -235 -3 -313 -12 -322
-114 -109 -300 -174 -419 -148 -121 27 -192 87 -224 188 -22 70 -16 182 13
239 29 56 106 126 187 170 69 38 418 183 443 184 9 0 12 -69 12 -311z"/>
<path d="M15770 24271 c-42 -5 -86 -11 -98 -15 -12 -4 -34 -10 -49 -12 -42 -8
-152 -45 -213 -72 -211 -93 -456 -335 -546 -538 -67 -153 -96 -294 -96 -474
-1 -312 100 -564 309 -774 223 -224 503 -336 843 -336 126 0 291 19 348 41 15
6 29 10 32 10 14 -2 142 45 195 72 140 70 307 211 405 342 74 98 162 292 175
385 2 14 8 54 14 90 13 81 14 241 1 308 -5 28 -12 72 -16 97 -15 112 -84 277
-166 398 -61 90 -214 239 -311 302 -180 117 -364 172 -603 179 -82 3 -183 1
-224 -3z m287 -406 c118 -12 282 -95 381 -193 118 -117 180 -243 202 -414 14
-113 2 -228 -36 -341 -71 -213 -258 -378 -488 -431 -77 -18 -292 -22 -346 -6
-19 6 -48 13 -63 15 -41 8 -148 58 -199 93 -58 41 -141 124 -176 175 -89 132
-135 331 -112 482 6 42 14 89 16 103 7 36 26 95 36 107 4 5 8 15 8 23 0 24 90
155 139 203 26 25 68 60 94 78 45 30 177 95 177 86 0 -3 12 0 28 6 57 23 199
29 339 14z"/>
<path d="M19400 22625 l0 -1645 225 2 226 3 -1 577 0 577 57 -20 c32 -11 69
-23 83 -25 14 -3 32 -7 40 -10 47 -17 190 -34 285 -34 310 0 558 102 760 312
108 111 138 152 190 258 42 85 88 200 79 200 -2 0 1 12 7 28 36 93 49 373 25
533 -40 255 -161 485 -326 617 -30 24 -63 50 -73 58 -28 22 -177 101 -235 124
-65 25 -181 56 -242 65 -25 3 -63 10 -85 15 -22 5 -259 10 -527 10 l-488 0 0
-1645z m965 1221 c200 -25 352 -105 442 -231 113 -159 158 -388 119 -595 -36
-184 -87 -285 -204 -401 -199 -195 -489 -238 -794 -116 l-78 31 0 664 0 664
238 -5 c130 -3 255 -8 277 -11z"/>
<path d="M21859 24268 c0 -2 -1 -491 -2 -1088 l0 -1085 224 -3 224 -2 -3 1090
-2 1090 -220 0 c-121 0 -220 -1 -221 -2z"/>
<path d="M27660 23180 l0 -1090 220 0 220 0 0 1090 0 1090 -220 0 -220 0 0
-1090z"/>
<path d="M30018 24253 c16 -38 260 -534 653 -1331 l180 -363 -37 -77 c-20 -42
-48 -102 -61 -132 -14 -30 -64 -138 -113 -240 -48 -102 -104 -221 -125 -265
-21 -44 -62 -131 -91 -193 -30 -62 -54 -114 -54 -116 0 -2 -32 -71 -71 -152
-39 -82 -87 -183 -106 -224 -19 -41 -46 -96 -58 -122 -13 -25 -21 -49 -18 -52
4 -3 115 -6 248 -6 l241 0 51 108 c29 59 83 175 121 257 39 83 107 229 152
325 45 96 113 240 150 320 37 80 89 190 115 245 26 55 71 152 100 215 29 63
101 216 160 340 59 124 126 268 150 320 24 52 77 166 119 253 42 87 76 161 76
163 0 3 34 75 75 161 41 86 75 157 75 159 0 2 30 65 66 141 37 76 81 171 100
211 l33 72 -249 0 -250 0 -26 -52 c-15 -29 -48 -100 -74 -158 -61 -135 -148
-326 -190 -415 -18 -38 -43 -95 -57 -125 -14 -30 -40 -86 -58 -125 -18 -38
-54 -119 -80 -180 -74 -168 -67 -164 -118 -54 -25 52 -86 179 -136 282 -50
103 -91 190 -91 192 0 2 -49 104 -108 227 -60 122 -128 265 -152 316 l-43 92
-253 0 c-238 0 -253 -1 -246 -17z"/>
<path d="M9690 22717 c-3 -2 -28 -7 -57 -11 -187 -22 -392 -187 -443 -357 -29
-97 -28 -237 3 -322 74 -203 291 -347 525 -347 71 0 169 18 241 44 24 9 46 15
47 13 2 -2 -17 -44 -41 -93 -88 -175 -288 -375 -498 -498 l-47 -28 49 -57 c27
-31 68 -76 90 -101 l42 -45 52 30 c179 100 398 307 520 491 83 125 166 299
182 383 1 9 9 36 16 61 7 26 13 105 13 190 0 125 -3 154 -23 214 -30 91 -49
129 -105 201 -42 53 -144 145 -163 145 -3 0 -14 6 -22 14 -17 15 -118 52 -166
61 -47 8 -209 18 -215 12z m195 -268 c68 -25 141 -94 175 -164 20 -43 23 -65
23 -154 -1 -122 -1 -123 -123 -168 -65 -24 -89 -28 -185 -28 -117 0 -143 8
-233 74 -38 28 -92 134 -92 182 0 72 41 162 92 203 18 14 38 30 43 35 54 42
212 53 300 20z"/>
<path d="M28805 21700 c-267 -53 -660 -388 -1012 -860 -86 -116 -193 -269
-193 -276 0 -3 -11 -20 -24 -37 -35 -47 -147 -238 -203 -348 -54 -105 -131
-291 -159 -384 -10 -33 -19 -62 -21 -64 -2 -3 -13 5 -26 16 -81 75 -294 107
-420 64 -98 -34 -184 -82 -304 -173 -88 -66 -166 -112 -308 -183 -104 -52
-193 -95 -197 -95 -3 0 -44 -17 -90 -39 -129 -60 -377 -171 -382 -171 -3 0
-29 -11 -58 -24 -43 -19 -165 -67 -323 -126 -179 -68 -479 -160 -565 -175 -19
-3 -51 -10 -70 -15 -19 -6 -72 -10 -118 -10 -131 0 -170 30 -158 124 13 96 64
181 194 322 109 117 171 178 190 186 23 10 -1 74 -63 173 -77 123 -116 206
-134 285 -21 91 -15 107 64 167 39 30 77 59 85 66 14 12 114 85 180 132 46 33
251 191 301 232 26 21 98 79 160 128 173 137 242 207 283 285 43 81 49 152 17
191 -18 22 -26 24 -103 23 -90 -2 -133 -12 -278 -68 -319 -124 -648 -394 -797
-655 -23 -40 -49 -97 -57 -125 -8 -28 -23 -80 -34 -116 -16 -54 -25 -70 -58
-93 -201 -142 -541 -368 -679 -452 -71 -44 -149 -95 -173 -113 -73 -55 -363
-219 -567 -320 -273 -135 -403 -182 -503 -182 -111 0 -142 61 -98 192 39 116
122 229 204 280 62 38 73 118 21 161 -44 36 -79 22 -230 -88 -137 -100 -214
-155 -359 -253 -189 -129 -334 -214 -540 -315 -204 -101 -309 -137 -397 -137
-44 0 -55 4 -72 26 -31 39 -26 80 19 163 121 221 388 438 655 533 51 19 188
23 258 8 37 -7 78 -27 132 -65 80 -56 116 -66 155 -45 77 41 12 148 -135 220
-151 75 -326 82 -530 22 -89 -27 -308 -154 -407 -237 -52 -44 -325 -175 -468
-225 -111 -38 -250 -70 -360 -81 -113 -12 -290 -6 -367 12 -58 13 -163 59
-163 71 0 4 15 25 33 45 54 61 99 133 128 204 22 55 27 82 27 150 0 95 -18
144 -67 178 -40 29 -138 29 -201 0 -64 -29 -147 -113 -181 -184 -25 -52 -29
-72 -29 -147 0 -77 17 -179 35 -209 9 -14 -6 -30 -108 -116 -208 -175 -455
-301 -547 -278 -44 11 -70 44 -70 90 0 39 26 134 55 200 7 17 24 57 38 90 14
33 39 85 55 116 34 65 72 170 72 200 0 45 -17 59 -75 59 -64 0 -80 -13 -187
-150 -89 -115 -214 -234 -340 -323 -189 -134 -294 -188 -375 -195 -50 -4 -53
-3 -64 24 -15 40 -4 108 38 233 38 114 73 194 109 253 52 83 144 270 144 292
0 36 -44 66 -96 66 -38 0 -46 -4 -70 -37 -61 -83 -127 -140 -290 -248 -160
-107 -262 -165 -292 -165 -7 0 -17 -10 -23 -23 -12 -26 -37 -41 -289 -167
-306 -154 -429 -200 -534 -200 -51 0 -64 4 -88 27 -22 21 -28 36 -28 67 0 47
18 111 50 179 22 47 103 146 145 177 78 58 97 98 70 150 -26 51 -76 64 -126
32 -34 -21 -85 -57 -343 -241 -455 -323 -899 -551 -1076 -551 -42 0 -52 4 -74
31 -14 17 -26 38 -26 48 0 9 16 50 35 90 90 188 316 394 560 510 103 49 133
56 260 56 132 0 130 1 250 -79 76 -52 118 -59 153 -26 26 24 27 41 8 79 -35
67 -178 155 -296 182 -78 18 -211 14 -312 -10 -93 -22 -230 -81 -304 -130 -25
-17 -47 -31 -50 -31 -16 0 -163 -122 -237 -196 -172 -173 -241 -306 -242 -469
0 -84 2 -93 30 -132 17 -23 53 -56 82 -73 45 -28 59 -31 115 -29 75 3 151 19
233 49 33 12 68 23 78 25 9 2 23 7 30 12 6 4 14 8 17 8 28 1 382 168 417 197
14 12 106 66 146 87 14 8 35 22 44 31 10 9 25 19 33 22 8 3 51 31 95 61 44 31
81 55 82 53 1 -1 -4 -22 -11 -46 -28 -97 8 -233 74 -280 75 -54 228 -74 329
-43 25 7 59 16 76 19 16 3 49 14 72 24 24 10 43 16 43 13 0 -3 6 -1 13 4 6 6
30 16 52 23 127 40 650 309 663 342 2 4 8 8 13 8 5 0 40 20 79 45 41 26 70 39
70 32 0 -7 -4 -17 -8 -22 -27 -31 -83 -241 -88 -325 -4 -84 19 -139 73 -173
67 -42 168 -54 257 -31 127 34 331 162 474 299 63 60 64 60 49 23 -10 -24 -15
-71 -15 -140 -1 -96 1 -107 27 -149 52 -82 142 -119 281 -114 94 3 136 13 215
51 81 40 293 195 464 341 34 30 40 29 102 -12 74 -48 172 -84 282 -103 67 -11
327 -6 391 7 33 7 69 14 80 16 35 5 112 24 142 36 16 6 36 12 44 14 26 5 145
47 155 55 6 4 18 10 29 14 15 5 17 3 11 -11 -27 -65 -46 -123 -51 -153 -3 -19
-7 -43 -10 -52 -3 -10 0 -46 7 -80 11 -54 19 -69 61 -110 26 -25 64 -52 84
-58 63 -21 175 -7 310 38 303 102 511 208 832 425 63 43 115 77 117 77 2 0 -3
-16 -11 -35 -7 -19 -14 -58 -14 -88 0 -118 59 -207 163 -245 72 -27 197 -24
302 7 39 12 77 23 85 25 38 10 194 73 280 114 52 25 97 46 100 47 3 0 14 6 25
12 16 9 131 69 215 114 24 12 249 149 315 191 33 20 88 54 123 74 35 20 69 45
75 56 7 11 39 36 72 56 55 33 283 180 447 289 37 25 71 42 76 39 5 -3 12 -16
15 -28 31 -136 74 -248 122 -314 15 -20 11 -26 -62 -115 -43 -52 -86 -105 -96
-119 -124 -180 -176 -292 -178 -384 -2 -77 17 -132 62 -181 58 -63 137 -88
278 -88 58 1 119 3 135 6 16 4 50 9 75 13 82 12 222 45 396 94 102 29 380 131
487 179 24 11 59 26 78 34 122 51 251 109 360 163 69 34 126 61 128 59 1 -1
-16 -30 -39 -65 -83 -123 -121 -262 -105 -375 6 -37 17 -56 52 -91 24 -24 53
-44 64 -44 12 0 35 -7 52 -16 36 -19 130 -25 173 -12 16 5 38 11 48 13 9 2 22
7 27 10 5 3 20 8 32 10 45 9 288 138 409 217 109 71 257 174 375 260 41 29 56
29 61 -1 5 -37 65 -142 100 -177 91 -91 275 -128 493 -98 112 15 309 67 362
95 11 6 28 12 40 14 20 4 70 26 157 68 25 12 47 22 50 22 7 0 151 74 166 85 6
4 42 24 80 45 73 39 317 200 395 260 25 19 63 47 85 62 22 15 42 30 45 34 3 3
12 8 21 11 9 4 78 51 153 105 76 54 157 112 180 128 23 17 90 67 149 113 59
46 111 82 117 80 5 -2 1 -28 -9 -58 -41 -124 -72 -231 -100 -340 -68 -261 -91
-349 -100 -372 -5 -12 -9 -27 -10 -33 -5 -30 -65 -226 -80 -260 -5 -11 -24
-58 -42 -105 -17 -47 -35 -88 -38 -92 -3 -4 -51 -19 -106 -33 -55 -15 -138
-40 -185 -57 -47 -16 -89 -31 -95 -32 -71 -16 -725 -242 -766 -265 -8 -5 -47
-21 -85 -37 -79 -31 -271 -129 -295 -150 -8 -8 -19 -14 -22 -14 -6 0 -26 -13
-116 -78 -112 -80 -174 -150 -219 -252 -57 -127 -58 -281 -4 -369 59 -95 178
-183 278 -205 16 -4 40 -9 54 -12 61 -13 182 -5 290 21 3 1 21 5 40 9 64 15
233 88 332 145 157 89 329 225 479 378 225 230 358 416 498 696 30 60 59 110
65 111 6 2 49 15 95 30 45 15 90 29 100 31 9 2 43 13 76 25 33 12 69 23 80 25
11 3 63 19 115 36 52 17 102 32 110 34 8 2 60 17 115 35 55 17 109 32 120 35
48 11 444 140 585 192 52 19 103 36 113 38 9 2 23 7 30 12 6 4 19 8 27 10 8 1
23 6 35 12 23 11 195 81 210 85 6 1 27 10 49 19 21 9 40 17 43 17 2 0 29 11
59 25 30 14 57 25 60 25 3 0 29 11 57 23 29 13 72 32 97 43 88 36 299 147 415
218 109 66 137 117 89 167 -36 38 -94 41 -127 6 -52 -54 -314 -192 -497 -261
-36 -13 -200 -76 -365 -139 -359 -138 -474 -180 -688 -251 -161 -54 -362 -118
-383 -122 -7 -1 -38 -11 -70 -22 -207 -71 -445 -143 -462 -140 -19 3 -18 10
29 123 80 193 122 327 195 625 10 44 34 132 48 180 9 30 18 63 21 73 2 10 9
32 15 50 5 18 26 84 46 147 66 209 74 234 89 257 18 27 20 104 3 121 -30 30
-118 4 -162 -48 -30 -37 -83 -77 -291 -225 -128 -91 -474 -325 -480 -325 -1 0
-32 -19 -68 -42 -79 -52 -137 -89 -281 -176 -90 -55 -112 -74 -125 -104 -14
-33 -32 -45 -156 -112 -191 -102 -388 -189 -490 -217 -16 -4 -55 -15 -85 -24
-191 -55 -391 -60 -490 -12 -66 32 -110 106 -110 184 l0 51 93 84 c52 46 145
128 208 183 163 143 262 239 512 500 121 127 271 282 332 345 290 299 509 589
628 831 91 184 105 313 45 416 -42 71 -178 108 -303 83z m153 -203 c32 -30 26
-78 -21 -178 -30 -63 -131 -228 -167 -272 -5 -7 -38 -48 -72 -92 -58 -75 -215
-264 -228 -275 -3 -3 -41 -45 -85 -95 -156 -178 -304 -335 -585 -618 -250
-253 -487 -477 -504 -477 -9 0 4 57 31 140 93 283 261 595 540 1000 44 64 173
233 237 310 103 125 358 377 456 449 87 65 202 125 255 134 55 9 118 -2 143
-26z m-3705 -575 c-55 -34 -311 -225 -433 -322 -19 -15 -93 -72 -165 -126 -71
-53 -154 -117 -182 -142 -55 -46 -62 -48 -40 -10 58 104 212 264 353 369 105
78 147 104 265 162 84 41 114 54 174 74 31 10 48 7 28 -5z m-5695 -1279 c2
-30 -6 -56 -32 -106 -33 -65 -105 -166 -117 -167 -12 0 -18 74 -10 115 17 85
109 214 144 202 7 -2 13 -22 15 -44z m7433 -13 c50 -14 87 -45 91 -78 2 -20 9
-28 27 -30 20 -3 22 -7 16 -35 -3 -18 -9 -57 -12 -87 -3 -30 -10 -61 -16 -68
-13 -16 -138 -118 -187 -152 -19 -13 -37 -27 -40 -30 -11 -14 -298 -200 -370
-239 -201 -111 -357 -181 -405 -181 -60 0 -85 99 -49 186 81 193 451 587 643
684 80 40 122 50 196 44 39 -2 86 -9 106 -14z m2234 -1226 c-52 -88 -182 -273
-250 -356 -79 -97 -292 -310 -383 -382 -99 -78 -262 -185 -343 -224 -74 -35
-186 -79 -221 -86 -13 -2 -43 -9 -68 -15 -25 -6 -72 -11 -105 -11 -55 0 -66 4
-137 51 -46 29 -84 62 -93 80 -15 28 -20 102 -12 159 6 38 44 106 83 150 38
42 215 163 324 222 88 48 154 82 160 83 3 1 34 15 70 32 53 25 175 73 325 129
65 24 680 230 683 228 1 -1 -13 -28 -33 -60z"/>
<path d="M12193 16418 c-4 -7 -22 -53 -39 -103 -17 -49 -43 -124 -58 -165 -15
-41 -33 -93 -41 -115 -7 -22 -32 -92 -55 -155 -23 -63 -46 -126 -50 -140 -5
-14 -27 -77 -50 -140 -22 -63 -58 -164 -80 -225 -21 -60 -52 -148 -69 -195
-18 -47 -43 -119 -57 -160 -15 -41 -37 -104 -50 -139 -13 -35 -24 -67 -24 -72
0 -15 346 -11 357 4 6 6 34 83 62 170 l53 157 297 0 298 0 27 -92 c15 -51 34
-110 42 -131 7 -20 14 -40 14 -45 0 -4 5 -22 11 -39 l11 -33 184 0 c101 0 184
2 184 4 0 2 -21 62 -46 132 -25 71 -52 147 -59 169 -15 46 -80 230 -125 355
-17 47 -48 137 -70 200 -21 63 -53 153 -70 200 -18 47 -36 96 -40 110 -13 40
-147 423 -155 443 -6 15 -26 17 -200 17 -144 0 -196 -3 -202 -12z m208 -395
c6 -16 12 -32 13 -38 1 -5 17 -57 35 -115 18 -58 33 -106 32 -107 0 -2 5 -20
13 -40 16 -41 56 -169 61 -193 2 -8 11 -35 19 -59 9 -24 16 -45 16 -47 0 -2
-90 -4 -200 -4 -165 0 -200 2 -200 14 0 8 20 74 43 148 24 73 68 208 97 301
30 92 55 167 57 167 2 0 8 -12 14 -27z"/>
<path d="M15519 16403 c-1 -16 -1 -145 0 -288 l1 -259 -63 60 c-105 103 -227
140 -373 115 -229 -40 -371 -208 -414 -491 -17 -113 -6 -256 30 -391 20 -72
77 -174 130 -232 166 -181 482 -190 642 -19 l47 50 3 -71 3 -72 149 -3 c86 -1
152 1 155 7 5 7 7 1586 2 1614 0 4 -71 7 -156 7 l-155 0 -1 -27z m-142 -666
c46 -24 99 -89 123 -153 20 -50 23 -78 24 -189 0 -121 -2 -134 -28 -190 -53
-116 -117 -159 -241 -159 -70 -1 -86 2 -127 27 -88 51 -135 165 -136 327 -1
246 95 368 284 356 40 -2 85 -11 101 -19z"/>
<path d="M19530 16145 l0 -285 -52 54 c-95 98 -218 139 -362 119 -208 -29
-346 -164 -414 -403 -20 -71 -22 -357 -3 -413 7 -21 14 -44 15 -50 7 -42 43
-124 75 -174 79 -120 156 -174 292 -205 163 -37 327 11 424 125 l35 41 0 -77
0 -77 155 0 155 0 0 815 0 815 -160 0 -160 0 0 -285z m-174 -396 c64 -16 135
-86 157 -155 73 -225 27 -440 -111 -522 -41 -23 -58 -27 -132 -27 -77 0 -89 3
-128 29 -51 35 -103 118 -121 197 -9 35 -12 95 -9 165 4 118 26 184 81 250 55
65 157 89 263 63z"/>
<path d="M21800 16285 l0 -145 245 0 245 0 0 -670 0 -670 170 0 170 0 0 670 0
670 245 0 245 0 0 145 0 145 -660 0 -660 0 0 -145z"/>
<path d="M13928 16030 c-93 -17 -179 -72 -239 -154 l-29 -39 0 86 0 87 -155 0
-155 0 2 -602 3 -603 157 -3 157 -3 3 388 c3 282 7 399 17 427 7 21 34 60 59
85 37 37 59 50 104 60 97 24 202 -6 240 -68 23 -36 23 -41 28 -461 l5 -425
158 -3 158 -3 -1 461 c-1 436 -3 464 -22 521 -36 107 -115 188 -223 228 -63
24 -196 34 -267 21z"/>
<path d="M16520 16037 c-3 -3 -27 -6 -55 -8 -70 -4 -189 -45 -238 -83 -85 -65
-143 -173 -149 -278 l-3 -53 144 0 143 -1 23 51 c40 91 84 115 203 115 118 -1
180 -42 187 -125 3 -30 -1 -43 -23 -64 -26 -26 -63 -36 -207 -56 -52 -7 -146
-23 -215 -37 -118 -23 -212 -93 -262 -196 -28 -57 -34 -79 -37 -155 -5 -135
27 -217 115 -290 146 -122 424 -104 582 38 56 51 62 53 62 25 0 -10 5 -42 11
-70 l11 -50 171 2 c158 3 172 4 175 22 2 11 -10 32 -30 53 l-33 34 -2 397 c-3
431 -7 477 -55 554 -48 77 -156 141 -273 163 -47 8 -239 18 -245 12z m256
-755 c-2 -82 -6 -105 -27 -142 -75 -137 -326 -183 -384 -70 -8 16 -15 54 -15
84 0 44 5 60 26 86 43 50 99 71 259 97 17 3 53 13 80 23 28 10 53 19 57 19 3
1 5 -43 4 -97z"/>
<path d="M17950 16030 c-99 -18 -182 -70 -237 -146 l-33 -48 0 87 0 87 -155 0
-155 0 0 -605 0 -605 159 0 160 0 3 398 3 397 27 46 c59 101 155 144 267 121
65 -14 98 -35 126 -83 19 -32 20 -55 23 -456 l3 -423 160 0 160 0 -3 473 -3
472 -33 70 c-20 42 -51 87 -78 112 -44 42 -128 87 -181 98 -54 11 -168 14
-213 5z"/>
<path d="M20600 16037 c-3 -2 -25 -7 -50 -10 -167 -21 -342 -142 -415 -287
-53 -107 -68 -170 -70 -315 -4 -218 43 -354 166 -476 115 -115 264 -173 444
-172 254 1 445 113 549 321 15 28 24 52 22 52 -3 0 1 15 8 33 7 17 19 76 27
130 13 104 4 220 -26 320 -61 201 -224 347 -440 393 -34 8 -210 17 -215 11z
m166 -282 c71 -21 122 -68 157 -145 29 -62 31 -71 31 -200 0 -113 -3 -143 -21
-186 -30 -76 -66 -117 -129 -148 -138 -68 -314 -17 -377 109 -21 43 -47 166
-47 222 0 72 26 178 57 234 58 107 195 154 329 114z"/>
<path d="M23544 16031 c-237 -38 -406 -184 -475 -411 -33 -108 -33 -323 0
-425 34 -109 70 -173 130 -234 70 -70 88 -84 150 -116 187 -94 439 -91 625 8
150 80 261 246 284 427 32 250 -26 457 -165 591 -80 78 -186 134 -293 154 -51
10 -207 14 -256 6z m205 -277 c128 -38 191 -152 191 -350 0 -117 -16 -181 -63
-250 -60 -90 -183 -129 -306 -97 -75 19 -124 61 -163 141 -32 65 -33 69 -33
202 0 146 9 191 51 256 62 96 194 137 323 98z"/>
<path d="M26430 16029 c-24 -5 -58 -15 -75 -23 -37 -18 -120 -104 -155 -161
l-25 -40 -3 103 -3 102 -149 0 -150 0 0 -605 0 -606 158 3 157 3 5 365 c4 265
9 373 18 394 25 58 56 89 116 117 53 25 73 29 151 29 l91 0 -1 158 c0 148 -1
157 -20 164 -27 8 -61 8 -115 -3z"/>
<path d="M27050 16030 c-83 -13 -169 -48 -220 -89 -61 -49 -75 -66 -112 -140
-29 -58 -32 -71 -32 -160 0 -105 14 -146 73 -213 54 -62 234 -133 411 -163
112 -19 173 -39 218 -72 57 -42 36 -115 -44 -153 -41 -19 -60 -21 -148 -18
-75 3 -111 9 -141 23 -42 22 -83 73 -92 118 l-5 27 -160 0 -159 0 5 -47 c15
-151 111 -262 279 -323 157 -57 403 -56 560 1 103 38 203 133 234 222 25 73
24 219 -1 267 -33 60 -58 88 -110 123 -85 55 -164 81 -446 142 -144 31 -194
80 -155 153 14 26 31 41 60 51 52 18 179 18 230 0 42 -15 82 -64 92 -111 3
-14 13 -28 22 -30 21 -6 290 -2 296 3 2 3 -1 25 -6 49 -6 25 -12 50 -13 55 -4
27 -33 84 -59 122 -51 72 -165 136 -281 157 -59 11 -243 14 -296 6z"/>
<path d="M24493 15548 c4 -492 4 -488 55 -586 27 -51 93 -117 142 -142 52 -26
157 -47 227 -45 131 5 268 73 329 162 l19 28 5 -80 5 -80 150 0 150 0 3 603 2
602 -159 0 -160 0 -4 -387 c-1 -214 -6 -397 -9 -408 -24 -76 -83 -137 -150
-156 -51 -15 -157 -14 -171 0 -6 6 -17 11 -25 11 -26 0 -77 72 -86 122 -3 13
-5 202 -5 421 l-1 397 -161 0 -160 0 4 -462z"/>
<path d="M22530 13604 c-193 -19 -307 -98 -390 -269 -51 -107 -64 -171 -57
-292 6 -112 7 -117 38 -198 28 -76 135 -186 224 -230 57 -28 66 -30 185 -30
125 0 125 0 202 38 42 21 84 47 94 58 19 22 44 25 44 7 0 -7 5 -30 11 -50 10
-37 11 -38 59 -38 l50 0 0 265 c0 245 -1 265 -17 266 -66 3 -390 4 -400 1 -9
-3 -13 -25 -13 -63 l0 -59 154 0 153 0 -3 -50 c-6 -99 -55 -170 -155 -225 -50
-28 -61 -30 -159 -30 -119 0 -165 12 -218 59 -35 30 -96 145 -106 198 -23 128
-12 250 29 335 30 63 90 117 174 157 90 42 180 44 261 4 69 -34 117 -80 142
-135 l19 -43 59 0 60 0 0 33 c0 70 -73 173 -165 234 -65 42 -179 66 -275 57z"/>
<path d="M10577 13583 c-4 -3 -7 -226 -7 -495 l0 -488 310 0 310 0 0 60 0 60
-240 0 -240 0 0 435 0 435 -63 0 c-35 0 -67 -3 -70 -7z"/>
<path d="M13280 13418 l0 -171 -22 20 c-65 59 -179 86 -264 63 -59 -17 -136
-77 -168 -132 -74 -128 -75 -371 -2 -487 83 -131 247 -182 378 -118 32 16 67
40 78 54 l20 26 0 -37 0 -36 50 0 50 0 0 495 0 495 -60 0 -60 0 0 -172z m-127
-219 c46 -23 97 -83 113 -132 24 -73 16 -205 -18 -278 -31 -68 -73 -101 -139
-107 -120 -11 -209 111 -209 287 0 59 23 140 51 175 44 56 146 84 202 55z"/>
<path d="M13570 13510 l0 -80 60 0 60 0 0 80 0 80 -60 0 -60 0 0 -80z"/>
<path d="M15780 13095 l0 -495 355 0 356 0 -3 58 -3 57 -287 3 -288 2 0 163 0
163 263 0 262 -1 3 58 3 57 -266 0 -265 0 0 160 0 160 278 2 277 3 0 50 0 50
-342 3 -343 2 0 -495z"/>
<path d="M20680 13510 l0 -81 63 3 c34 2 61 6 60 11 -2 4 -3 39 -3 77 l0 70
-60 0 -60 0 0 -80z"/>
<path d="M23900 13095 l0 -495 60 0 60 0 0 495 0 495 -60 0 -60 0 0 -495z"/>
<path d="M19280 13405 l0 -95 -45 0 -45 0 0 -60 0 -60 45 0 45 0 0 -255 c0
-275 5 -308 52 -338 32 -22 90 -30 144 -22 l45 6 -3 52 c-3 49 -5 52 -28 50
-45 -4 -67 6 -78 34 -6 17 -10 119 -10 251 l1 222 43 0 c68 0 74 5 74 66 l0
54 -59 0 -60 0 2 93 2 92 -63 3 -62 3 0 -96z"/>
<path d="M11516 13319 c-137 -34 -231 -195 -231 -394 1 -102 32 -181 100 -254
147 -157 450 -104 515 89 10 30 16 58 14 62 -3 5 -30 8 -59 8 -50 0 -56 -3
-69 -28 -23 -44 -91 -100 -137 -112 -66 -18 -119 -6 -163 38 -44 42 -57 69
-63 133 l-5 45 256 0 c140 0 259 3 263 8 12 12 -22 187 -48 241 -58 125 -117
166 -247 171 -48 2 -105 -1 -126 -7z m179 -112 c36 -20 90 -84 93 -111 1 -6 4
-24 8 -40 4 -16 2 -31 -4 -35 -6 -3 -91 -6 -189 -6 -171 0 -178 1 -178 20 -2
58 56 143 117 174 55 27 103 26 153 -2z"/>
<path d="M12245 13321 c-84 -22 -148 -85 -164 -160 -14 -66 -6 -71 97 -62 6 1
12 13 12 27 0 67 101 108 210 86 78 -17 104 -39 108 -91 6 -77 -16 -93 -148
-106 -86 -9 -189 -34 -231 -56 -40 -20 -80 -83 -92 -144 -15 -80 42 -187 118
-222 62 -28 174 -23 250 11 33 15 70 36 82 48 l22 21 10 -24 c5 -13 20 -34 34
-47 21 -20 33 -23 88 -20 l64 3 3 48 c3 46 2 47 -21 42 -19 -5 -29 -1 -41 16
-14 20 -16 59 -16 264 0 286 -1 288 -105 336 -54 26 -80 31 -157 34 -51 3
-106 1 -123 -4z m255 -450 c0 -85 -23 -123 -95 -160 -37 -20 -65 -26 -112 -26
-55 0 -65 3 -92 29 -41 40 -44 101 -6 139 28 28 106 56 157 58 18 0 56 7 83
14 28 7 53 13 58 14 4 0 7 -30 7 -68z"/>
<path d="M14155 13324 c-54 -14 -103 -38 -132 -67 l-33 -31 0 42 0 42 -55 0
-55 0 0 -355 0 -355 54 0 55 0 3 233 c3 216 4 235 25 273 58 109 205 143 276
64 l27 -30 0 -270 0 -270 61 0 60 0 -3 308 c-3 346 -2 339 -79 388 -32 20 -57
27 -113 29 -39 2 -80 2 -91 -1z"/>
<path d="M14795 13321 c-91 -22 -167 -102 -199 -208 -14 -45 -18 -70 -23 -159
-9 -152 20 -239 107 -318 50 -44 123 -76 175 -76 40 0 122 30 163 60 23 16 44
30 47 30 13 0 3 -87 -16 -130 -16 -36 -34 -58 -67 -80 -98 -65 -262 -25 -267
65 0 6 -28 11 -62 13 -71 3 -72 1 -52 -72 13 -49 58 -92 127 -124 44 -20 70
-24 141 -25 75 0 94 4 151 30 76 36 122 81 147 143 15 39 17 95 21 443 l4 397
-61 0 -61 0 0 -40 0 -41 -37 37 c-21 20 -52 43 -70 50 -34 15 -117 17 -168 5z
m195 -160 c50 -40 79 -117 80 -211 0 -99 -21 -165 -68 -213 -72 -75 -132 -87
-198 -39 -124 91 -136 368 -19 457 68 52 144 55 205 6z"/>
<path d="M17562 13321 c-18 -5 -56 -23 -83 -40 -28 -17 -52 -31 -55 -31 -2 0
-4 14 -4 30 0 30 -1 30 -55 30 l-55 0 0 -505 0 -505 55 0 55 0 0 180 c0 99 4
180 8 180 5 0 17 -9 28 -21 41 -46 94 -64 184 -64 75 0 91 3 131 27 85 50 155
157 165 251 3 23 6 47 9 54 8 24 -17 161 -41 223 -33 83 -71 130 -133 163 -55
30 -150 43 -209 28z m115 -122 c42 -15 83 -58 105 -109 29 -65 35 -192 14
-258 -32 -95 -139 -159 -221 -132 -43 14 -100 62 -119 99 -21 41 -39 158 -32
203 24 149 140 240 253 197z"/>
<path d="M18275 13321 c-114 -28 -184 -115 -222 -275 -27 -117 -16 -218 34
-306 59 -104 134 -151 254 -158 165 -10 300 79 323 211 l7 37 -58 0 c-58 0
-58 0 -85 -45 -71 -117 -235 -136 -315 -35 -16 20 -45 118 -41 138 3 15 28 17
238 18 129 1 246 2 259 3 23 1 23 2 16 75 -8 92 -21 134 -65 215 -38 71 -80
104 -150 120 -51 12 -150 13 -195 2z m193 -128 c47 -38 82 -98 82 -143 l0 -35
-184 0 c-102 0 -187 3 -190 6 -3 3 3 29 14 59 49 135 183 190 278 113z"/>
<path d="M19051 13315 c-18 -8 -49 -32 -67 -52 l-34 -37 0 42 0 42 -60 0 -60
0 0 -355 0 -355 59 0 59 0 4 238 c3 207 6 242 22 273 23 45 75 75 144 85 l52
7 0 63 0 64 -42 0 c-24 -1 -58 -7 -77 -15z"/>
<path d="M21275 13324 c-63 -16 -92 -30 -126 -61 l-39 -35 0 41 0 41 -55 0
-55 0 0 -345 c0 -190 0 -348 0 -352 0 -5 25 -9 55 -11 l55 -3 0 214 c0 255 8
297 71 351 76 64 180 66 232 4 l27 -32 0 -268 0 -268 61 0 60 0 -3 309 c-3
351 -1 342 -88 390 -42 24 -147 37 -195 25z"/>
<path d="M23335 13324 c-91 -24 -155 -90 -168 -175 -7 -47 0 -55 51 -53 59 2
58 2 59 26 3 35 23 65 52 78 46 21 123 24 184 6 73 -21 92 -48 82 -112 -5 -39
-11 -48 -38 -59 -18 -7 -59 -16 -92 -19 -204 -21 -272 -50 -317 -136 -39 -76
-36 -145 11 -213 47 -69 97 -92 196 -91 86 1 145 20 210 69 32 25 34 25 40 6
3 -10 15 -31 26 -45 18 -24 27 -26 90 -26 l69 0 0 49 c0 43 -2 49 -19 44 -10
-2 -25 3 -35 12 -14 14 -16 47 -16 265 l0 249 -32 37 c-51 58 -125 85 -238 90
-52 1 -104 1 -115 -2z m254 -451 c-1 -38 -6 -77 -12 -88 -32 -62 -143 -112
-222 -101 -76 12 -122 82 -93 143 19 41 89 71 203 88 54 8 101 17 103 20 16
16 22 -3 21 -62z"/>
<path d="M24375 13321 c-62 -16 -90 -36 -143 -102 -19 -24 -32 -107 -18 -117
9 -7 38 -8 89 -3 8 0 18 17 23 38 5 20 20 44 34 55 53 39 197 32 255 -14 20
-15 25 -29 25 -62 0 -74 -20 -88 -150 -101 -91 -10 -192 -35 -233 -58 -40 -23
-79 -83 -90 -142 -15 -80 42 -187 118 -222 62 -28 174 -23 250 11 33 15 70 36
82 48 l22 21 10 -24 c5 -13 19 -34 31 -47 19 -20 30 -23 88 -20 l67 3 3 48 c3
46 2 47 -21 42 -19 -5 -29 -1 -41 16 -14 20 -16 59 -16 264 0 286 -1 288 -105
336 -54 26 -80 31 -157 34 -51 3 -106 1 -123 -4z m255 -450 c0 -85 -23 -123
-95 -160 -37 -20 -65 -26 -112 -26 -55 0 -65 3 -92 29 -42 40 -44 103 -4 140
30 28 105 56 155 57 18 0 56 7 83 14 28 7 53 13 58 14 4 0 7 -30 7 -68z"/>
<path d="M25174 13312 c-28 -10 -67 -31 -85 -47 l-34 -28 -3 37 -3 37 -52 -3
-52 -3 0 -500 0 -500 55 0 55 0 5 179 c4 157 7 177 19 162 8 -9 35 -29 60 -44
41 -24 56 -27 136 -27 80 0 95 3 136 27 98 58 168 188 171 316 3 128 -66 304
-138 354 -81 57 -179 71 -270 40z m156 -122 c53 -27 85 -73 105 -150 36 -138
1 -262 -88 -315 -83 -48 -139 -43 -205 19 -60 55 -75 98 -76 211 -1 92 1 104
27 148 56 94 153 130 237 87z"/>
<path d="M25874 13321 c-56 -14 -104 -52 -134 -105 -27 -47 -40 -114 -22 -117
4 -1 28 -2 55 -3 40 -2 47 1 47 16 0 69 78 115 178 106 119 -11 167 -57 144
-137 -14 -45 -38 -57 -132 -66 -222 -20 -298 -62 -333 -182 -18 -60 -10 -102
29 -165 72 -113 247 -128 391 -33 51 34 52 34 59 12 3 -12 16 -32 27 -44 17
-20 31 -23 89 -23 l68 0 0 51 c0 31 -4 48 -10 44 -18 -11 -47 4 -58 31 -8 16
-12 105 -12 264 l0 238 -25 31 c-45 53 -124 83 -234 87 -53 2 -110 0 -127 -5z
m256 -455 c0 -66 -3 -78 -26 -106 -39 -46 -99 -73 -165 -74 -87 -2 -139 39
-139 110 0 28 55 90 81 92 8 0 32 6 54 11 22 6 74 17 115 24 41 8 76 15 78 16
1 0 2 -32 2 -73z"/>
<path d="M26640 13321 c-151 -38 -243 -217 -228 -443 14 -204 169 -346 336
-308 53 12 123 47 137 70 26 41 34 -47 11 -113 -28 -78 -91 -117 -188 -117
-88 0 -147 36 -148 88 0 22 -3 23 -62 20 l-63 -3 3 -33 c3 -48 26 -86 74 -125
56 -45 104 -60 197 -60 139 -1 237 50 286 148 l30 60 3 403 3 402 -61 0 -60 0
0 -36 0 -36 -37 32 c-20 18 -51 39 -69 46 -34 14 -119 17 -164 5z m189 -159
c66 -53 76 -82 76 -217 0 -127 -9 -159 -59 -213 -29 -32 -89 -62 -125 -62 -68
0 -136 67 -157 155 -37 154 -20 247 59 323 62 60 142 66 206 14z"/>
<path d="M19745 13295 c-90 -37 -135 -103 -135 -199 0 -107 75 -165 276 -212
101 -23 143 -43 160 -76 38 -74 -37 -142 -158 -142 -59 0 -73 4 -110 30 -30
21 -47 42 -58 72 l-14 42 -58 0 c-65 0 -66 -1 -49 -88 17 -89 117 -152 253
-160 134 -8 241 35 294 119 23 37 26 52 25 112 -1 51 -7 77 -21 97 -20 28 -98
71 -160 89 -217 61 -233 67 -253 93 -17 22 -18 33 -11 60 29 101 250 106 287
8 11 -29 14 -30 73 -30 l62 0 -9 41 c-13 58 -32 90 -68 117 -80 58 -220 70
-326 27z"/>
<path d="M27366 13300 c-125 -49 -187 -175 -187 -379 0 -87 5 -120 22 -166 27
-72 87 -133 155 -158 63 -22 193 -23 257 -1 95 32 184 147 205 264 13 68 6
165 -18 242 -25 83 -82 148 -169 191 -46 23 -67 27 -135 27 -55 -1 -97 -7
-130 -20z m214 -109 c90 -47 138 -219 100 -356 -20 -72 -91 -141 -155 -150
-117 -18 -199 56 -225 202 -40 225 112 390 280 304z"/>
<path d="M28081 13301 c-106 -37 -163 -128 -146 -236 11 -75 59 -117 173 -150
258 -76 247 -71 263 -114 6 -15 6 -36 -1 -57 -26 -76 -185 -106 -270 -50 -37
25 -76 88 -65 106 4 6 -19 10 -61 10 l-67 0 6 -45 c14 -101 66 -159 172 -190
156 -45 324 6 391 120 23 39 26 54 22 106 -3 39 -11 69 -25 87 -22 30 -81 67
-133 82 -59 18 -137 39 -163 44 -47 8 -115 44 -127 66 -36 66 41 130 156 130
53 0 67 -4 94 -27 17 -14 36 -37 41 -50 8 -21 15 -23 69 -23 54 0 61 2 56 18
-3 9 -7 29 -10 44 -10 59 -57 105 -135 133 -59 21 -173 19 -240 -4z"/>
<path d="M13570 12955 l0 -355 60 0 60 0 0 355 0 355 -60 0 -60 0 0 -355z"/>
<path d="M16600 13305 c0 -3 47 -78 105 -165 58 -88 105 -165 105 -170 0 -5
-53 -91 -119 -190 l-118 -180 62 0 c72 0 68 -3 150 120 32 47 67 98 78 113
l19 28 19 -28 c10 -15 49 -73 86 -128 l69 -100 72 -3 73 -3 -91 133 c-181 265
-164 235 -147 261 9 12 31 43 49 68 18 26 60 84 93 130 32 46 66 91 74 99 13
13 7 15 -50 18 -74 4 -67 10 -171 -146 l-62 -93 -18 23 c-10 13 -41 57 -70 98
-28 41 -58 85 -67 97 -14 19 -26 22 -78 23 -35 0 -63 -2 -63 -5z"/>
<path d="M20680 12955 l0 -355 60 0 60 0 0 355 0 355 -60 0 -60 0 0 -355z"/>
<path d="M12910 11382 c-6 -2 -10 -27 -10 -56 l0 -52 153 1 c83 1 158 -1 165
-3 9 -3 12 -101 12 -443 l0 -439 70 0 70 0 0 443 0 443 150 -1 150 -1 0 53 c0
29 -3 53 -7 54 -22 3 -745 3 -753 1z"/>
<path d="M15599 11379 c-5 -3 -11 -38 -12 -77 -3 -79 -7 -74 63 -74 63 0 60
-4 60 77 0 53 -4 75 -12 76 -58 4 -90 4 -99 -2z"/>
<path d="M18295 11380 c-99 -20 -162 -66 -204 -151 -25 -51 -31 -74 -31 -128
0 -70 22 -132 56 -163 34 -30 170 -86 246 -102 246 -51 302 -86 303 -186 0
-81 -57 -136 -173 -165 -66 -17 -95 -15 -172 12 -91 33 -143 89 -155 169 l-6
44 -66 0 -65 0 5 -60 c16 -171 174 -288 391 -288 177 0 343 98 381 225 43 142
-22 262 -174 322 -42 16 -101 35 -131 42 -30 6 -98 25 -152 41 -79 23 -102 34
-127 63 -37 43 -39 75 -8 130 15 28 37 48 74 66 140 71 347 -3 356 -128 2 -28
3 -28 67 -28 l65 0 -3 45 c-9 120 -93 206 -230 236 -72 15 -183 17 -247 4z"/>
<path d="M20848 11382 c-15 -3 -18 -15 -18 -77 l0 -73 38 -3 c80 -8 82 -6 82
77 0 41 -3 74 -7 75 -28 3 -81 4 -95 1z"/>
<path d="M24554 11345 c-106 -33 -159 -98 -198 -242 -32 -120 -35 -352 -5
-463 55 -212 126 -279 292 -275 119 3 195 52 251 160 79 156 84 492 8 654 -65
141 -210 210 -348 166z m163 -141 c43 -27 52 -39 79 -101 46 -104 52 -334 12
-452 -30 -91 -63 -137 -108 -155 -22 -9 -48 -16 -57 -16 -32 0 -94 24 -118 46
-44 41 -70 174 -70 359 0 174 35 281 107 325 38 23 116 20 155 -6z"/>
<path d="M25390 11315 c-8 -28 -25 -56 -46 -75 -33 -29 -116 -60 -161 -60 -21
0 -23 -4 -23 -55 l0 -55 105 0 105 0 0 -340 0 -340 44 0 c83 0 76 -45 76 491
l0 479 -44 0 c-43 0 -44 0 -56 -45z"/>
<path d="M26032 11342 c-131 -47 -202 -159 -204 -319 -1 -100 24 -160 94 -225
111 -105 268 -108 382 -8 l36 32 0 -49 c0 -182 -140 -328 -274 -283 -41 13
-85 61 -93 101 -5 28 -8 29 -64 29 l-59 0 0 -40 c0 -78 55 -152 143 -194 112
-53 254 -21 351 79 67 69 96 137 114 264 14 94 14 123 3 215 -15 125 -30 186
-59 241 -31 60 -89 123 -136 147 -58 30 -165 34 -234 10z m163 -113 c79 -22
135 -106 135 -204 -1 -111 -105 -205 -215 -192 -130 14 -207 157 -153 287 40
96 129 138 233 109z"/>
<path d="M23813 11340 c-120 -25 -208 -131 -222 -266 l-7 -64 62 0 62 0 7 53
c10 69 28 101 77 137 36 26 50 30 107 30 114 0 184 -63 184 -164 0 -100 -48
-148 -273 -274 -67 -38 -156 -112 -191 -161 -31 -44 -50 -109 -52 -182 l-2
-54 318 -2 318 -2 -3 62 -3 62 -252 3 -252 2 20 35 c11 19 36 48 55 64 37 33
159 114 187 124 36 13 153 96 188 134 60 63 73 97 74 193 0 75 -3 90 -28 132
-26 46 -75 86 -146 123 -40 20 -165 29 -228 15z"/>
<path d="M15378 11113 c-18 -8 -50 -30 -70 -51 l-38 -36 0 37 c0 39 0 39 -65
39 -19 0 -39 0 -45 -1 -6 -1 -10 -127 -10 -356 l0 -355 54 0 c30 0 57 4 60 8
3 5 6 112 7 239 1 226 2 231 26 272 28 48 82 79 145 84 l43 4 0 63 0 64 -37 1
c-21 1 -52 -5 -70 -12z"/>
<path d="M16779 11104 c-24 -14 -54 -37 -66 -52 l-23 -27 0 38 c0 39 0 39 -65
39 -19 0 -40 0 -45 -1 -7 -1 -9 -121 -8 -353 l3 -353 57 -3 57 -3 3 260 c3
292 3 292 84 338 66 38 158 22 183 -33 7 -17 11 -114 11 -295 l0 -270 62 3 63
3 0 245 c1 231 2 247 23 286 36 70 135 104 201 70 56 -29 56 -28 61 -325 l5
-276 60 0 60 0 3 283 c1 171 -2 299 -8 322 -13 48 -61 95 -114 113 -92 30
-228 1 -276 -61 l-21 -25 -32 30 c-78 75 -194 94 -278 47z"/>
<path d="M19185 11122 c-11 -2 -44 -12 -73 -24 -81 -32 -135 -105 -170 -234
-29 -106 -28 -198 3 -277 73 -181 235 -253 424 -190 99 33 160 98 175 186 l7
37 -59 0 -59 0 -30 -48 c-48 -77 -153 -118 -226 -87 -68 28 -111 91 -122 176
l-5 39 260 0 260 0 0 58 c0 68 -21 144 -60 222 -35 68 -72 105 -130 125 -42
16 -151 25 -195 17z m143 -116 c53 -28 100 -100 108 -168 l4 -28 -196 0 -195
0 7 23 c37 121 106 187 196 187 27 0 61 -6 76 -14z"/>
<path d="M19942 11115 c-17 -8 -49 -32 -71 -55 l-41 -42 0 41 c0 22 -4 41 -10
42 -13 1 -76 1 -92 0 -10 -1 -13 -76 -12 -344 1 -188 2 -348 3 -354 1 -9 19
-13 55 -13 l55 0 3 238 c3 222 4 240 25 278 25 47 84 82 149 88 21 3 43 5 47
5 4 1 7 29 5 63 l-3 62 -41 2 c-23 1 -55 -4 -72 -11z"/>
<path d="M21328 11115 c-101 -25 -164 -82 -216 -193 -25 -53 -27 -66 -27 -197
0 -124 3 -146 23 -190 49 -106 160 -178 276 -177 73 0 95 5 151 32 62 30 121
98 139 161 26 87 25 89 -44 89 -57 0 -60 -1 -65 -27 -11 -48 -31 -77 -80 -110
-144 -100 -295 35 -283 252 9 165 121 278 249 250 40 -9 109 -77 109 -109 0
-13 6 -28 13 -33 10 -8 61 -10 108 -4 13 1 4 50 -23 112 -49 117 -192 179
-330 144z"/>
<path d="M21999 11113 c-87 -22 -134 -67 -182 -173 -34 -74 -47 -136 -47 -217
0 -109 27 -179 99 -256 131 -140 395 -118 495 42 13 20 25 53 29 74 l6 37 -59
0 c-51 0 -61 -3 -71 -22 -23 -45 -83 -98 -128 -112 -71 -23 -125 -10 -178 43
-31 31 -63 106 -63 148 l0 23 261 0 261 0 -6 79 c-8 121 -68 253 -134 300 -64
44 -186 59 -283 34z m179 -107 c54 -28 87 -78 101 -151 l8 -45 -194 0 -194 0
6 23 c18 63 62 134 100 159 46 31 127 38 173 14z"/>
<path d="M13850 11107 c-67 -16 -107 -36 -142 -74 -31 -33 -72 -119 -87 -185
-23 -99 -8 -268 32 -343 51 -98 188 -151 329 -127 119 21 198 83 250 198 19
42 22 66 21 164 0 94 -4 126 -23 174 -29 77 -78 129 -154 166 -74 37 -147 45
-226 27z m178 -130 c27 -17 49 -44 68 -82 24 -50 27 -68 28 -158 0 -80 -4
-110 -18 -137 -57 -109 -161 -154 -250 -108 -85 43 -119 112 -123 248 -2 83 1
102 21 146 42 90 98 127 183 121 35 -2 65 -12 91 -30z"/>
<path d="M16045 11105 c-27 -7 -61 -17 -75 -23 -37 -15 -86 -72 -100 -116 -17
-52 -8 -140 17 -174 29 -39 113 -78 224 -106 53 -13 114 -32 135 -42 82 -40
77 -121 -9 -163 -111 -54 -254 -5 -272 93 l-7 36 -59 0 -59 0 0 -40 c0 -45 21
-104 48 -133 29 -33 109 -67 180 -77 120 -17 235 13 293 77 52 57 59 74 59
149 0 63 -3 76 -25 103 -34 39 -116 76 -240 108 -110 28 -169 54 -179 78 -19
50 7 90 76 120 83 34 168 10 209 -60 20 -33 24 -35 75 -35 50 0 54 2 54 24 0
97 -73 165 -201 186 -75 12 -79 12 -144 -5z"/>
<path d="M22715 11105 c-27 -7 -61 -17 -75 -23 -37 -15 -86 -72 -100 -116 -16
-50 -7 -142 18 -175 28 -39 114 -78 233 -107 118 -28 165 -52 179 -89 30 -79
-90 -158 -202 -133 -71 15 -116 52 -130 103 l-12 45 -59 0 -59 0 5 -53 c5 -58
24 -102 53 -128 64 -56 196 -86 304 -68 74 12 113 30 158 73 50 46 62 77 62
155 0 60 -3 74 -26 100 -34 41 -111 76 -237 107 -56 14 -118 35 -139 45 -71
36 -60 105 22 147 86 43 177 21 221 -53 20 -33 24 -35 73 -35 29 0 55 3 58 6
11 11 -21 107 -44 131 -33 35 -84 59 -153 72 -70 13 -85 13 -150 -4z"/>
<path d="M14411 11102 c-16 -5 -15 -567 0 -613 15 -43 53 -85 100 -109 74 -39
238 -7 306 59 l22 21 3 -33 3 -32 60 0 60 0 3 353 c2 308 0 352 -13 353 -8 1
-31 1 -50 1 -19 0 -42 0 -50 -1 -13 -1 -15 -35 -15 -244 l0 -244 -30 -44 c-34
-51 -84 -87 -136 -99 -53 -12 -88 -3 -121 32 l-28 29 -3 285 c-2 211 -6 284
-15 285 -48 4 -87 4 -96 1z"/>
<path d="M15593 11097 c-4 -7 -8 -640 -4 -695 1 -9 17 -12 59 -10 l57 3 3 353
c1 193 -1 353 -5 353 -39 6 -105 3 -110 -4z"/>
<path d="M20103 11102 c-13 -2 -23 -5 -23 -6 0 -2 43 -128 96 -282 52 -153
102 -299 110 -324 35 -106 30 -100 98 -100 l62 0 22 53 c72 176 251 650 248
655 -3 6 -88 8 -117 3 -3 -1 -53 -127 -110 -281 l-104 -281 -48 153 c-27 84
-67 210 -89 281 -22 70 -43 127 -47 128 -21 3 -79 4 -98 1z"/>
<path d="M20848 11102 c-17 -3 -18 -28 -18 -358 l0 -354 60 0 60 0 0 355 c0
195 -3 355 -7 356 -25 4 -81 4 -95 1z"/>
</g>
</svg>
