<?xml version="1.0" encoding="UTF-8"?>
<svg xmlns="http://www.w3.org/2000/svg" xmlns:xlink="http://www.w3.org/1999/xlink" width="1099pt" height="230pt" viewBox="0 0 1099 230" version="1.1">
<defs>
<linearGradient id="linear0" gradientUnits="userSpaceOnUse" x1="0" y1="689.1896" x2="1128.2456" y2="689.1896" gradientTransform="matrix(0.314557,0,0,-0.314633,-0.22211,299.301639)">
<stop offset="0" style="stop-color:rgb(89.019608%,9.411765%,21.568627%);stop-opacity:1;"/>
<stop offset="0.2032" style="stop-color:rgb(82.745098%,11.764706%,17.254902%);stop-opacity:1;"/>
<stop offset="0.4958" style="stop-color:rgb(76.078431%,13.333333%,12.54902%);stop-opacity:1;"/>
<stop offset="0.7686" style="stop-color:rgb(71.764706%,13.72549%,9.803922%);stop-opacity:1;"/>
<stop offset="1" style="stop-color:rgb(70.196078%,13.72549%,9.019608%);stop-opacity:1;"/>
</linearGradient>
</defs>
<g id="surface1">
<path style=" stroke:none;fill-rule:nonzero;fill:url(#linear0);" d="M 354.675781 160.480469 C 333.238281 140.515625 329.539062 107.234375 330.277344 79.128906 C 331.015625 54.722656 331.015625 29.582031 331.753906 4.4375 L -0.222656 4.4375 L -0.222656 159.742188 Z M 354.675781 160.480469 "/>
<path style=" stroke:none;fill-rule:nonzero;fill:rgb(70.196078%,13.72549%,9.019608%);fill-opacity:1;" d="M 471.496094 147.910156 C 459.667969 158.261719 443.402344 163.4375 422.699219 163.4375 C 402 163.4375 384.992188 158.261719 373.902344 147.910156 C 362.074219 137.554688 356.898438 122.023438 356.898438 100.578125 L 356.898438 4.4375 L 390.90625 4.4375 L 390.90625 101.316406 C 390.90625 105.753906 390.90625 109.453125 391.648438 113.890625 C 392.386719 118.328125 393.863281 121.289062 396.082031 124.984375 C 398.300781 127.941406 401.996094 130.898438 405.695312 132.382812 C 410.128906 134.601562 415.308594 135.339844 422.699219 135.339844 C 434.53125 135.339844 443.402344 132.382812 447.839844 127.203125 C 452.273438 122.027344 454.492188 113.152344 454.492188 101.316406 L 454.492188 4.4375 L 488.503906 4.4375 L 488.503906 101.316406 C 489.242188 122.023438 483.324219 137.558594 471.496094 147.910156 Z M 471.496094 147.910156 "/>
<path style=" stroke:none;fill-rule:nonzero;fill:rgb(70.196078%,13.72549%,9.019608%);fill-opacity:1;" d="M 544.695312 121.285156 C 546.914062 124.980469 549.128906 127.9375 552.089844 130.160156 C 555.046875 132.378906 558.742188 133.859375 563.183594 135.335938 C 567.617188 136.074219 572.054688 136.816406 576.492188 136.816406 C 579.449219 136.816406 583.144531 136.816406 586.101562 136.074219 C 589.800781 135.335938 592.757812 134.597656 595.714844 133.117188 C 598.671875 131.640625 601.628906 129.421875 603.113281 127.203125 C 605.328125 124.984375 606.070312 121.289062 606.070312 117.585938 C 606.070312 113.152344 604.589844 110.191406 602.371094 107.234375 C 599.414062 104.277344 596.457031 102.796875 592.019531 100.578125 C 587.585938 99.101562 582.40625 97.621094 577.234375 96.140625 C 572.058594 94.664062 566.140625 93.183594 560.226562 91.707031 C 554.3125 90.226562 548.398438 88.75 543.222656 86.53125 C 538.046875 84.3125 532.871094 81.355469 528.4375 78.394531 C 524 74.695312 520.300781 70.996094 518.082031 65.820312 C 515.125 60.644531 514.386719 54.726562 514.386719 47.332031 C 514.386719 39.195312 515.867188 32.542969 519.5625 26.628906 C 523.257812 20.710938 527.695312 15.535156 532.871094 11.835938 C 538.046875 8.140625 544.703125 5.183594 551.355469 2.960938 C 558.007812 1.480469 565.402344 0.742188 572.054688 0.742188 C 580.191406 0.742188 588.320312 1.480469 595.714844 3.699219 C 603.113281 5.179688 609.765625 8.136719 615.679688 12.574219 C 621.59375 17.011719 626.03125 22.191406 629.726562 28.105469 C 633.421875 34.761719 634.902344 42.15625 634.902344 51.035156 L 601.628906 51.035156 C 601.628906 46.597656 600.152344 42.898438 598.671875 39.199219 C 597.195312 36.242188 594.976562 34.023438 592.019531 31.804688 C 589.0625 30.324219 586.105469 28.84375 582.40625 28.105469 C 578.707031 27.367188 575.011719 27.367188 570.578125 27.367188 C 567.621094 27.367188 565.402344 27.367188 562.441406 28.105469 C 559.484375 28.84375 557.269531 29.585938 555.046875 31.0625 C 552.828125 32.542969 550.613281 34.019531 549.132812 36.238281 C 547.65625 39.195312 546.914062 41.414062 546.914062 45.117188 C 546.914062 48.074219 547.65625 50.289062 548.394531 52.511719 C 549.871094 54.730469 552.089844 56.210938 555.046875 57.6875 C 558.742188 59.167969 563.183594 60.644531 569.09375 62.125 C 575.007812 63.601562 583.144531 65.820312 592.757812 68.039062 C 595.714844 68.777344 599.410156 69.519531 604.585938 70.996094 C 609.761719 72.476562 614.9375 74.695312 620.113281 78.394531 C 625.289062 82.089844 629.726562 86.53125 633.421875 91.707031 C 637.117188 97.621094 639.335938 104.277344 639.335938 113.152344 C 639.335938 120.546875 637.859375 127.203125 634.902344 133.117188 C 631.945312 139.035156 628.246094 144.210938 622.332031 148.648438 C 617.15625 153.085938 609.761719 156.785156 602.371094 159.003906 C 594.234375 161.222656 584.625 162.699219 574.273438 162.699219 C 565.398438 162.699219 557.269531 161.960938 549.132812 159.742188 C 541 157.523438 533.605469 154.566406 527.691406 150.128906 C 521.78125 145.691406 516.601562 139.773438 512.90625 133.117188 C 509.210938 126.464844 507.730469 117.585938 507.730469 107.972656 L 541.003906 107.972656 C 541.738281 113.890625 542.476562 118.328125 544.695312 121.285156 Z M 544.695312 121.285156 "/>
<path style=" stroke:none;fill-rule:nonzero;fill:rgb(70.196078%,13.72549%,9.019608%);fill-opacity:1;" d="M 647.46875 33.277344 L 647.46875 4.4375 L 774.640625 4.4375 L 774.640625 33.277344 L 728.058594 33.277344 L 728.058594 159.742188 L 694.050781 159.742188 L 694.050781 33.277344 Z M 647.46875 33.277344 "/>
<path style=" stroke:none;fill-rule:nonzero;fill:rgb(70.196078%,13.72549%,9.019608%);fill-opacity:1;" d="M 791.644531 50.289062 C 795.339844 40.671875 800.519531 31.800781 806.433594 24.402344 C 813.085938 17.007812 821.21875 11.089844 830.832031 6.65625 C 840.441406 2.21875 850.792969 0 862.625 0 C 874.457031 0 885.546875 2.21875 895.15625 6.65625 C 904.765625 11.089844 912.898438 17.007812 918.816406 24.402344 C 925.46875 31.800781 930.648438 40.671875 933.605469 50.289062 C 937.300781 59.902344 938.777344 70.992188 938.777344 82.828125 C 938.777344 93.921875 937.300781 105.015625 933.605469 114.628906 C 929.910156 124.242188 925.46875 133.113281 918.816406 140.511719 C 912.164062 147.910156 904.03125 153.824219 895.15625 157.519531 C 885.542969 161.957031 875.195312 163.4375 862.625 163.4375 C 850.792969 163.4375 839.703125 161.21875 830.832031 157.519531 C 821.21875 153.085938 813.089844 147.90625 806.433594 140.511719 C 799.777344 133.117188 794.601562 124.980469 791.644531 114.628906 C 787.949219 105.011719 786.46875 93.921875 786.46875 82.828125 C 786.46875 70.996094 787.949219 60.640625 791.644531 50.289062 Z M 822.699219 102.058594 C 824.175781 107.972656 826.394531 113.890625 830.09375 119.066406 C 833.789062 124.242188 837.488281 127.941406 843.402344 130.898438 C 848.578125 133.859375 855.234375 135.335938 863.363281 135.335938 C 870.757812 135.335938 877.410156 133.859375 883.324219 130.898438 C 888.5 127.941406 892.9375 124.246094 896.632812 119.066406 C 900.332031 113.890625 902.546875 108.710938 904.03125 102.058594 C 905.507812 96.140625 906.246094 89.484375 906.246094 82.832031 C 906.246094 76.175781 905.507812 69.519531 904.03125 62.863281 C 902.550781 56.210938 900.332031 51.03125 896.632812 45.855469 C 892.9375 40.679688 889.238281 36.980469 883.324219 34.019531 C 878.152344 31.0625 871.496094 29.585938 863.363281 29.585938 C 855.96875 29.585938 849.316406 31.0625 843.402344 34.019531 C 838.226562 36.980469 833.789062 40.675781 830.09375 45.855469 C 826.398438 51.03125 824.179688 56.210938 822.699219 62.863281 C 821.21875 69.519531 820.480469 76.175781 820.480469 82.832031 C 820.480469 89.484375 821.21875 95.402344 822.699219 102.058594 Z M 822.699219 102.058594 "/>
<path style=" stroke:none;fill-rule:nonzero;fill:rgb(70.196078%,13.72549%,9.019608%);fill-opacity:1;" d="M 1040.074219 4.4375 L 1098.484375 159.742188 L 1062.996094 159.742188 L 1051.164062 124.984375 L 992.753906 124.984375 L 980.183594 159.742188 L 946.175781 159.742188 L 1005.324219 4.4375 Z M 1041.550781 99.839844 L 1021.589844 42.894531 L 1020.851562 42.894531 L 1000.886719 99.839844 Z M 1041.550781 99.839844 "/>
<path style=" stroke:none;fill-rule:nonzero;fill:rgb(100%,100%,100%);fill-opacity:1;" d="M 47.835938 38.457031 L 61.144531 73.214844 L 53.011719 73.214844 L 50.054688 65.816406 L 37.484375 65.816406 L 34.527344 73.214844 L 27.136719 73.214844 L 40.445312 38.457031 C 40.445312 38.457031 47.835938 38.457031 47.835938 38.457031 Z M 48.574219 59.902344 L 44.140625 46.589844 L 39.703125 59.902344 Z M 48.574219 59.902344 "/>
<path style=" stroke:none;fill-rule:nonzero;fill:rgb(100%,100%,100%);fill-opacity:1;" d="M 70.019531 64.339844 C 70.757812 65.078125 70.757812 65.816406 71.496094 66.558594 C 72.234375 67.296875 72.976562 67.296875 73.714844 67.296875 C 74.453125 67.296875 75.933594 67.296875 76.671875 67.296875 C 77.410156 67.296875 78.148438 67.296875 78.890625 67.296875 C 79.628906 67.296875 80.367188 67.296875 81.105469 67.296875 C 81.847656 67.296875 82.585938 66.558594 82.585938 65.816406 C 83.324219 65.078125 83.324219 64.339844 83.324219 63.601562 C 83.324219 62.859375 83.324219 62.121094 82.585938 61.382812 C 81.847656 60.640625 81.105469 59.902344 80.367188 59.902344 C 79.628906 59.164062 78.148438 59.164062 77.410156 59.164062 C 75.933594 59.164062 75.191406 58.425781 73.714844 58.425781 C 72.234375 58.425781 71.496094 57.683594 70.019531 56.945312 C 68.539062 56.207031 67.0625 55.464844 66.324219 54.726562 C 64.84375 53.988281 64.105469 53.25 64.105469 51.769531 C 63.367188 51.03125 62.625 49.550781 62.625 48.074219 C 62.625 46.59375 63.367188 44.375 64.105469 43.636719 C 64.84375 42.15625 65.582031 41.417969 67.0625 40.679688 C 68.539062 39.941406 70.019531 39.199219 71.496094 38.460938 C 72.976562 37.722656 74.453125 37.722656 75.933594 37.722656 C 77.410156 37.722656 79.628906 37.722656 81.105469 38.460938 C 82.585938 39.199219 84.0625 39.199219 85.542969 40.679688 C 87.019531 41.417969 87.757812 42.898438 88.5 44.375 C 89.238281 45.855469 89.976562 47.332031 89.976562 49.550781 L 82.582031 49.550781 C 82.582031 48.8125 82.582031 47.332031 81.84375 47.332031 C 81.105469 45.117188 81.105469 45.117188 80.363281 44.375 C 79.625 43.636719 78.886719 43.636719 78.148438 43.636719 C 77.40625 43.636719 76.667969 43.636719 75.191406 43.636719 C 74.449219 43.636719 73.710938 43.636719 73.710938 43.636719 C 72.972656 43.636719 72.234375 43.636719 72.234375 44.375 C 71.492188 44.375 70.753906 45.117188 70.753906 45.855469 C 70.753906 46.59375 70.015625 46.59375 70.015625 47.332031 C 70.015625 48.074219 70.015625 48.8125 70.753906 48.8125 C 70.753906 49.550781 71.492188 49.550781 72.234375 50.289062 C 72.972656 50.289062 73.710938 51.03125 75.191406 51.03125 C 76.667969 51.03125 78.148438 51.769531 80.363281 52.507812 C 81.105469 52.507812 81.84375 52.507812 83.320312 53.25 C 84.800781 53.25 85.539062 53.988281 87.015625 54.726562 C 88.496094 55.464844 89.234375 56.207031 89.972656 57.683594 C 90.714844 59.164062 91.453125 60.640625 91.453125 62.121094 C 91.453125 63.601562 91.453125 65.078125 90.714844 66.558594 C 89.972656 68.035156 89.234375 68.777344 87.757812 70.253906 C 86.277344 70.992188 84.800781 71.734375 83.320312 72.472656 C 81.84375 73.210938 79.625 73.210938 77.40625 73.210938 C 75.191406 73.210938 73.710938 73.210938 71.492188 72.472656 C 69.277344 72.472656 67.796875 71.734375 66.320312 70.992188 C 64.839844 69.515625 64.101562 68.777344 62.625 67.296875 C 61.882812 65.816406 61.882812 63.601562 61.882812 61.382812 L 69.28125 61.382812 C 69.28125 62.859375 69.28125 63.601562 70.019531 64.339844 Z M 70.019531 64.339844 "/>
<path style=" stroke:none;fill-rule:nonzero;fill:rgb(100%,100%,100%);fill-opacity:1;" d="M 101.070312 64.339844 C 101.8125 65.078125 101.8125 65.816406 102.550781 66.558594 C 103.289062 67.296875 104.769531 67.296875 105.507812 67.296875 C 106.246094 67.296875 107.722656 67.296875 108.464844 67.296875 C 109.203125 67.296875 109.941406 67.296875 110.679688 67.296875 C 111.421875 67.296875 112.160156 67.296875 112.898438 66.558594 C 113.636719 66.558594 114.378906 65.816406 114.378906 65.078125 C 115.117188 64.339844 115.117188 63.601562 115.117188 62.859375 C 115.117188 62.121094 115.117188 61.382812 114.378906 60.640625 C 113.636719 60.640625 112.898438 59.902344 112.160156 59.902344 C 111.421875 59.164062 109.941406 59.164062 109.203125 59.164062 C 107.722656 59.164062 106.984375 58.425781 105.507812 58.425781 C 104.027344 58.425781 103.289062 57.683594 101.8125 56.945312 C 100.332031 56.207031 99.59375 56.207031 98.855469 55.464844 C 98.113281 54.726562 97.375 53.988281 96.636719 52.507812 C 95.898438 51.03125 95.898438 50.289062 95.898438 48.8125 C 95.898438 47.332031 96.636719 45.117188 97.375 44.375 C 98.113281 42.898438 98.855469 42.15625 100.332031 41.417969 C 101.8125 40.679688 103.289062 39.941406 104.769531 39.199219 C 104.027344 37.722656 105.507812 37.722656 107.722656 37.722656 C 109.203125 37.722656 111.421875 37.722656 112.898438 38.460938 C 114.378906 39.199219 115.855469 39.199219 117.335938 40.679688 C 118.8125 41.417969 119.550781 42.898438 120.292969 44.375 C 121.03125 45.855469 121.769531 47.332031 121.769531 49.550781 L 114.375 49.550781 C 114.375 48.8125 114.375 47.332031 113.636719 47.332031 C 112.894531 45.117188 112.15625 45.117188 111.417969 44.375 C 110.679688 43.636719 109.9375 43.636719 109.199219 43.636719 C 108.460938 43.636719 107.722656 43.636719 106.242188 43.636719 C 105.503906 43.636719 104.765625 43.636719 104.765625 43.636719 C 104.023438 43.636719 103.285156 43.636719 103.285156 44.375 C 102.546875 44.375 102.546875 45.117188 101.808594 45.855469 C 101.808594 46.59375 101.070312 46.59375 101.070312 47.332031 C 101.070312 48.074219 101.070312 48.8125 101.808594 48.8125 C 101.808594 49.550781 102.546875 49.550781 103.285156 50.289062 C 104.023438 50.289062 104.765625 51.03125 106.242188 51.03125 C 107.722656 51.03125 109.199219 51.769531 111.417969 52.507812 C 112.15625 52.507812 112.894531 52.507812 114.375 53.25 C 115.851562 53.25 116.59375 53.988281 118.070312 54.726562 C 119.546875 55.464844 120.289062 56.207031 121.027344 57.683594 C 121.765625 59.164062 122.503906 60.640625 122.503906 62.121094 C 122.503906 63.601562 122.503906 65.078125 121.765625 66.558594 C 121.027344 68.035156 120.289062 68.777344 118.808594 70.253906 C 117.332031 70.992188 115.851562 71.734375 114.375 72.472656 C 112.894531 73.210938 110.679688 73.210938 108.460938 73.210938 C 106.242188 73.210938 104.765625 73.210938 102.546875 72.472656 C 101.070312 71.734375 98.851562 70.992188 98.113281 70.253906 C 96.632812 69.515625 95.894531 68.035156 95.15625 66.558594 C 94.414062 65.078125 93.675781 62.859375 93.675781 61.382812 L 101.070312 61.382812 C 100.332031 62.859375 101.070312 63.601562 101.070312 64.339844 Z M 101.070312 64.339844 "/>
<path style=" stroke:none;fill-rule:nonzero;fill:rgb(100%,100%,100%);fill-opacity:1;" d="M 126.949219 48.808594 C 127.691406 46.589844 129.167969 44.371094 130.644531 42.894531 C 132.125 41.414062 133.601562 39.9375 135.820312 39.195312 C 137.300781 37.71875 139.515625 37.71875 142.472656 37.71875 C 145.429688 37.71875 147.648438 38.457031 149.867188 39.195312 C 152.089844 39.9375 153.566406 41.414062 155.042969 42.894531 C 156.523438 44.371094 157.261719 46.589844 158.738281 48.808594 C 159.480469 51.027344 160.21875 53.246094 160.21875 56.207031 C 160.21875 58.425781 159.480469 61.382812 158.738281 63.601562 C 157.261719 65.082031 156.523438 67.300781 155.042969 68.777344 C 153.566406 70.257812 152.085938 71.738281 149.867188 72.476562 C 147.652344 73.214844 145.433594 73.953125 142.472656 73.953125 C 139.515625 73.953125 137.300781 73.214844 135.078125 72.476562 C 132.859375 71.738281 131.382812 70.257812 129.902344 68.777344 C 128.425781 67.300781 127.6875 65.082031 126.207031 62.863281 C 125.46875 60.644531 125.46875 58.425781 125.46875 55.464844 C 125.472656 53.25 125.472656 51.03125 126.949219 48.808594 Z M 133.601562 59.902344 C 133.601562 61.382812 134.34375 62.859375 135.082031 63.601562 C 135.820312 64.339844 136.558594 65.816406 138.039062 66.558594 C 139.515625 67.296875 140.996094 67.296875 142.472656 67.296875 C 143.953125 67.296875 145.429688 67.296875 146.910156 66.558594 C 148.386719 65.816406 149.125 65.078125 149.867188 63.601562 C 150.605469 62.859375 151.34375 61.382812 151.34375 59.902344 C 151.34375 58.425781 152.082031 56.945312 152.082031 55.464844 C 152.082031 53.988281 152.082031 52.507812 151.34375 51.03125 C 151.34375 49.550781 150.605469 48.074219 149.867188 47.332031 C 149.125 45.855469 148.386719 45.117188 146.910156 44.375 C 145.429688 43.636719 143.953125 43.636719 142.472656 43.636719 C 140.996094 43.636719 139.515625 43.636719 138.039062 44.375 C 136.558594 45.117188 135.820312 45.855469 135.082031 47.332031 C 134.34375 48.8125 133.601562 49.550781 133.601562 51.03125 C 132.863281 52.507812 132.863281 53.988281 132.863281 55.464844 C 132.863281 56.945312 132.863281 58.425781 133.601562 59.902344 Z M 133.601562 59.902344 "/>
<path style=" stroke:none;fill-rule:nonzero;fill:rgb(100%,100%,100%);fill-opacity:1;" d="M 186.839844 47.332031 C 186.101562 46.589844 186.101562 45.851562 185.359375 45.113281 C 184.621094 45.113281 183.882812 44.371094 183.144531 44.371094 C 182.402344 44.371094 181.664062 43.632812 180.1875 43.632812 C 178.707031 43.632812 177.230469 43.632812 175.75 44.371094 C 174.273438 45.113281 173.53125 45.851562 172.792969 47.332031 C 172.054688 48.808594 171.316406 49.546875 171.316406 51.027344 C 171.316406 52.507812 170.578125 53.984375 170.578125 55.464844 C 170.578125 56.941406 170.578125 58.421875 171.316406 59.898438 C 171.316406 61.378906 172.054688 62.855469 172.792969 63.597656 C 173.53125 64.335938 174.273438 65.816406 175.75 66.554688 C 177.230469 67.292969 178.707031 67.292969 180.1875 67.292969 C 182.402344 67.292969 184.621094 66.554688 185.359375 65.074219 C 186.839844 63.597656 187.578125 62.117188 187.578125 59.160156 L 194.972656 59.160156 C 194.972656 61.378906 194.234375 63.597656 193.496094 65.074219 C 193.496094 67.292969 192.015625 68.773438 190.539062 70.25 C 189.058594 71.730469 187.582031 72.46875 186.101562 73.207031 C 184.625 73.949219 182.40625 73.949219 180.1875 73.949219 C 177.230469 73.949219 175.015625 73.207031 172.792969 72.46875 C 170.578125 71.730469 169.097656 70.25 167.621094 68.773438 C 166.140625 67.292969 165.402344 65.074219 163.921875 62.855469 C 163.183594 60.640625 162.445312 58.421875 162.445312 55.460938 C 162.445312 53.242188 163.183594 50.285156 163.921875 48.0625 C 164.664062 45.84375 166.140625 43.628906 167.621094 42.148438 C 169.097656 40.667969 170.578125 39.191406 172.792969 38.453125 C 175.011719 37.710938 177.230469 37.710938 180.1875 37.710938 C 182.40625 37.710938 183.886719 37.710938 185.363281 38.453125 C 186.84375 39.191406 188.320312 39.929688 189.800781 40.667969 C 191.277344 41.410156 192.015625 42.886719 193.496094 44.367188 C 194.234375 45.84375 194.972656 48.0625 194.972656 49.542969 L 187.578125 49.542969 C 187.578125 48.808594 187.578125 48.070312 186.839844 47.332031 Z M 186.839844 47.332031 "/>
<path style=" stroke:none;fill-rule:nonzero;fill:rgb(100%,100%,100%);fill-opacity:1;" d="M 208.277344 38.457031 L 208.277344 73.214844 L 200.882812 73.214844 L 200.882812 38.457031 Z M 208.277344 38.457031 "/>
<path style=" stroke:none;fill-rule:nonzero;fill:rgb(100%,100%,100%);fill-opacity:1;" d="M 231.941406 38.457031 L 245.25 73.214844 L 237.113281 73.214844 L 234.15625 65.816406 L 221.589844 65.816406 L 218.632812 73.214844 L 211.234375 73.214844 L 224.542969 38.457031 C 224.546875 38.457031 231.941406 38.457031 231.941406 38.457031 Z M 232.679688 59.902344 L 228.242188 47.332031 L 223.808594 59.902344 Z M 232.679688 59.902344 "/>
<path style=" stroke:none;fill-rule:nonzero;fill:rgb(100%,100%,100%);fill-opacity:1;" d="M 240.8125 45.113281 L 240.8125 38.457031 L 268.910156 38.457031 L 268.910156 45.113281 L 258.558594 45.113281 L 258.558594 73.214844 L 251.164062 73.214844 L 251.164062 45.113281 Z M 240.8125 45.113281 "/>
<path style=" stroke:none;fill-rule:nonzero;fill:rgb(100%,100%,100%);fill-opacity:1;" d="M 299.222656 38.457031 L 299.222656 45.113281 L 280.742188 45.113281 L 280.742188 52.507812 L 297.746094 52.507812 L 297.746094 58.425781 L 280.742188 58.425781 L 280.742188 66.5625 L 299.222656 66.5625 L 299.222656 73.214844 L 273.34375 73.214844 L 273.34375 38.457031 Z M 299.222656 38.457031 "/>
<path style=" stroke:none;fill-rule:nonzero;fill:rgb(100%,100%,100%);fill-opacity:1;" d="M 95.15625 90.222656 L 103.292969 113.890625 L 110.6875 90.222656 L 121.777344 90.222656 L 121.777344 124.980469 L 114.382812 124.980469 L 114.382812 100.574219 L 106.25 124.980469 L 100.335938 124.980469 L 92.199219 100.574219 L 92.199219 124.980469 L 84.804688 124.980469 L 84.804688 90.222656 C 84.804688 90.222656 95.15625 90.222656 95.15625 90.222656 Z M 95.15625 90.222656 "/>
<path style=" stroke:none;fill-rule:nonzero;fill:rgb(100%,100%,100%);fill-opacity:1;" d="M 154.308594 90.222656 L 154.308594 96.878906 L 135.824219 96.878906 L 135.824219 104.277344 L 152.828125 104.277344 L 152.828125 110.191406 L 135.824219 110.191406 L 135.824219 118.328125 L 155.046875 118.328125 L 155.046875 124.980469 L 128.429688 124.980469 L 128.429688 90.222656 C 128.429688 90.222656 154.308594 90.222656 154.308594 90.222656 Z M 154.308594 90.222656 "/>
<path style=" stroke:none;fill-rule:nonzero;fill:rgb(100%,100%,100%);fill-opacity:1;" d="M 170.574219 90.222656 L 178.707031 113.890625 L 186.101562 90.222656 L 197.195312 90.222656 L 197.195312 124.980469 L 189.800781 124.980469 L 189.800781 100.574219 L 181.664062 124.980469 L 175.75 124.980469 L 167.617188 100.574219 L 167.617188 124.980469 L 160.222656 124.980469 L 160.222656 90.222656 C 160.222656 90.222656 170.574219 90.222656 170.574219 90.222656 Z M 170.574219 90.222656 "/>
<path style=" stroke:none;fill-rule:nonzero;fill:rgb(100%,100%,100%);fill-opacity:1;" d="M 220.847656 90.222656 C 222.328125 90.222656 223.804688 90.222656 225.285156 90.964844 C 226.761719 90.964844 227.5 91.703125 228.980469 92.441406 C 229.71875 93.183594 230.457031 93.921875 231.199219 95.398438 C 231.9375 96.878906 231.9375 97.617188 231.9375 99.835938 C 231.9375 101.316406 231.199219 102.792969 230.457031 104.273438 C 229.71875 105.75 228.242188 106.492188 226.761719 107.230469 C 228.980469 107.96875 230.457031 108.707031 231.199219 110.1875 C 231.9375 111.667969 232.675781 113.882812 232.675781 116.101562 C 232.675781 117.582031 232.675781 119.058594 231.9375 120.539062 C 231.199219 122.019531 230.457031 122.757812 228.980469 123.496094 C 227.5 124.234375 226.761719 124.976562 225.285156 124.976562 C 223.804688 125.714844 222.328125 125.714844 220.847656 125.714844 L 203.84375 125.714844 L 203.84375 90.964844 L 220.847656 90.964844 Z M 219.371094 104.277344 C 220.847656 104.277344 221.589844 104.277344 223.066406 103.535156 C 223.804688 102.796875 224.542969 102.058594 224.542969 100.578125 C 224.542969 99.839844 224.542969 99.101562 223.804688 98.359375 C 223.804688 97.621094 223.066406 97.621094 222.328125 96.882812 C 221.589844 96.882812 221.589844 96.140625 220.847656 96.140625 C 220.109375 96.140625 219.371094 96.140625 218.632812 96.140625 L 211.234375 96.140625 L 211.234375 104.277344 Z M 220.109375 119.066406 C 220.847656 119.066406 221.589844 119.066406 222.328125 119.066406 C 223.066406 119.066406 223.804688 118.328125 223.804688 118.328125 C 224.542969 118.328125 224.542969 117.585938 225.285156 116.847656 C 225.285156 116.109375 226.023438 115.371094 226.023438 114.628906 C 226.023438 113.152344 225.285156 111.671875 224.542969 110.933594 C 223.804688 110.195312 222.328125 109.453125 220.847656 109.453125 L 212.714844 109.453125 L 212.714844 119.070312 L 220.109375 119.070312 Z M 220.109375 119.066406 "/>
<path style=" stroke:none;fill-rule:nonzero;fill:rgb(100%,100%,100%);fill-opacity:1;" d="M 264.472656 90.222656 L 264.472656 96.878906 L 245.988281 96.878906 L 245.988281 104.277344 L 262.992188 104.277344 L 262.992188 110.191406 L 245.988281 110.191406 L 245.988281 118.328125 L 264.472656 118.328125 L 264.472656 124.980469 L 237.855469 124.980469 L 237.855469 90.222656 C 237.855469 90.222656 264.472656 90.222656 264.472656 90.222656 Z M 264.472656 90.222656 "/>
<path style=" stroke:none;fill-rule:nonzero;fill:rgb(100%,100%,100%);fill-opacity:1;" d="M 288.132812 90.222656 C 289.609375 90.222656 291.089844 90.222656 292.566406 90.964844 C 294.046875 91.703125 294.785156 92.441406 295.523438 93.183594 C 296.265625 93.921875 297.003906 95.398438 297.742188 96.140625 C 298.480469 97.617188 298.480469 98.359375 298.480469 99.835938 C 298.480469 102.054688 297.742188 103.53125 297.003906 105.011719 C 296.265625 106.492188 294.785156 107.96875 292.566406 108.707031 C 293.308594 108.707031 294.046875 109.449219 294.785156 110.1875 C 295.523438 110.925781 296.265625 111.667969 296.265625 112.40625 C 297.003906 113.144531 297.003906 113.882812 297.003906 114.625 C 297.003906 115.363281 297.003906 116.101562 297.003906 117.582031 C 297.003906 118.320312 297.003906 119.058594 297.003906 119.800781 C 297.003906 120.539062 297.003906 121.277344 297.003906 122.019531 C 297.003906 122.757812 297.003906 123.496094 297.742188 124.234375 C 297.742188 124.976562 298.480469 125.714844 298.480469 125.714844 L 291.089844 125.714844 C 290.351562 124.976562 290.351562 123.496094 290.351562 122.019531 C 290.351562 120.539062 290.351562 119.058594 289.609375 117.582031 C 289.609375 116.101562 288.871094 114.625 288.132812 113.882812 C 288.132812 111.667969 286.652344 111.667969 285.175781 111.667969 L 277.78125 111.667969 L 277.78125 124.980469 L 270.386719 124.980469 L 270.386719 90.222656 C 270.386719 90.222656 288.132812 90.222656 288.132812 90.222656 Z M 285.914062 105.753906 C 287.394531 105.753906 288.871094 105.015625 289.609375 104.277344 C 290.351562 103.535156 291.089844 102.058594 291.089844 100.578125 C 291.089844 99.101562 290.351562 97.621094 289.609375 96.882812 C 288.871094 96.140625 287.394531 95.402344 285.914062 95.402344 L 277.78125 95.402344 L 277.78125 105.019531 L 285.914062 105.019531 Z M 285.914062 105.753906 "/>
<path style=" stroke:none;fill-rule:nonzero;fill:rgb(70.196078%,13.72549%,9.019608%);fill-opacity:1;" d="M 31.570312 217.425781 C 28.613281 220.386719 24.175781 221.125 19 221.125 C 13.824219 221.125 9.386719 219.644531 6.429688 217.425781 C 3.472656 214.46875 1.996094 210.773438 1.996094 205.59375 L 1.996094 180.449219 L 10.871094 180.449219 L 10.871094 205.59375 C 10.871094 206.332031 10.871094 207.8125 10.871094 208.550781 C 10.871094 209.289062 11.609375 210.769531 12.347656 211.507812 C 13.085938 212.25 13.824219 212.988281 14.566406 213.726562 C 15.304688 214.464844 16.78125 214.464844 19 214.464844 C 21.957031 214.464844 24.175781 213.726562 25.652344 212.25 C 27.132812 210.769531 27.132812 208.550781 27.132812 205.59375 L 27.132812 180.449219 L 36.003906 180.449219 L 36.003906 205.59375 C 36.007812 210.773438 34.527344 214.46875 31.570312 217.425781 Z M 31.570312 217.425781 "/>
<path style=" stroke:none;fill-rule:nonzero;fill:rgb(70.196078%,13.72549%,9.019608%);fill-opacity:1;" d="M 50.054688 191.542969 L 50.054688 195.238281 C 50.792969 193.761719 52.269531 192.28125 53.75 191.542969 C 55.226562 190.804688 56.707031 190.0625 58.925781 190.0625 C 61.140625 190.0625 62.621094 190.0625 64.097656 190.804688 C 65.578125 192.28125 66.316406 193.019531 67.054688 193.761719 C 67.792969 194.5 68.535156 195.980469 68.535156 197.457031 C 68.535156 198.9375 69.273438 200.414062 69.273438 202.632812 L 69.273438 220.382812 L 61.878906 220.382812 L 61.878906 204.113281 C 61.878906 201.894531 61.878906 199.675781 60.398438 198.9375 C 59.660156 197.457031 58.183594 197.457031 56.703125 197.457031 C 54.484375 197.457031 53.007812 198.195312 52.269531 199.675781 C 51.527344 201.15625 50.789062 203.371094 50.789062 206.332031 L 50.789062 221.121094 L 42.65625 221.121094 L 42.65625 192.277344 L 50.050781 192.277344 L 50.050781 191.542969 Z M 50.054688 191.542969 "/>
<path style=" stroke:none;fill-rule:nonzero;fill:rgb(70.196078%,13.72549%,9.019608%);fill-opacity:1;" d="M 75.933594 187.105469 L 75.933594 180.453125 L 84.066406 180.453125 L 84.066406 187.105469 Z M 84.066406 191.542969 L 84.066406 220.386719 L 75.933594 220.386719 L 75.933594 191.542969 Z M 84.066406 191.542969 "/>
<path style=" stroke:none;fill-rule:nonzero;fill:rgb(70.196078%,13.72549%,9.019608%);fill-opacity:1;" d="M 105.507812 191.542969 L 105.507812 196.71875 L 99.59375 196.71875 L 99.59375 210.769531 C 99.59375 212.25 99.59375 212.988281 100.332031 213.726562 C 101.070312 214.464844 101.8125 214.464844 103.289062 214.464844 C 104.027344 214.464844 104.027344 214.464844 104.769531 214.464844 C 105.507812 214.464844 105.507812 214.464844 106.246094 214.464844 L 106.246094 220.382812 C 105.507812 220.382812 104.769531 220.382812 104.027344 220.382812 C 103.289062 220.382812 102.550781 220.382812 101.8125 220.382812 C 100.332031 220.382812 99.59375 220.382812 98.113281 220.382812 C 97.375 220.382812 95.898438 219.640625 95.15625 219.640625 C 94.417969 218.902344 93.679688 218.164062 92.941406 217.425781 C 92.199219 216.683594 92.199219 215.207031 92.199219 213.726562 L 92.199219 196.71875 L 87.765625 196.71875 L 87.765625 191.542969 L 92.199219 191.542969 L 92.199219 182.667969 L 100.335938 182.667969 L 100.335938 191.542969 Z M 105.507812 191.542969 "/>
<path style=" stroke:none;fill-rule:nonzero;fill:rgb(70.196078%,13.72549%,9.019608%);fill-opacity:1;" d="M 118.078125 212.992188 C 119.554688 214.46875 121.035156 214.46875 123.25 214.46875 C 124.730469 214.46875 126.207031 213.730469 127.6875 212.992188 C 129.164062 212.25 129.902344 211.511719 129.902344 210.773438 L 136.558594 210.773438 C 135.078125 214.46875 133.601562 216.6875 131.382812 218.167969 C 129.164062 219.648438 126.207031 220.386719 123.246094 220.386719 C 121.03125 220.386719 118.8125 220.386719 117.335938 219.648438 C 115.855469 218.910156 113.636719 218.167969 112.898438 216.691406 C 111.421875 215.210938 110.679688 213.734375 109.941406 211.515625 C 109.203125 209.296875 109.203125 207.820312 109.203125 205.601562 C 109.203125 203.382812 109.203125 201.164062 109.941406 199.683594 C 110.679688 197.46875 111.421875 195.988281 112.898438 194.507812 C 114.378906 193.03125 115.855469 192.292969 117.335938 191.550781 C 118.8125 190.8125 121.03125 190.074219 123.246094 190.074219 C 125.464844 190.074219 127.683594 190.8125 129.902344 191.550781 C 131.378906 192.292969 132.859375 193.769531 134.335938 195.25 C 135.816406 196.726562 136.554688 198.945312 136.554688 200.425781 C 137.292969 202.644531 137.292969 204.859375 137.292969 207.078125 L 116.59375 207.078125 C 116.597656 210.035156 116.597656 212.25 118.078125 212.992188 Z M 126.949219 198.199219 C 126.210938 197.460938 124.734375 196.722656 122.515625 196.722656 C 121.035156 196.722656 120.296875 196.722656 119.558594 197.460938 C 118.820312 198.199219 118.078125 198.199219 117.339844 198.9375 C 116.601562 199.679688 116.601562 200.417969 116.601562 201.15625 C 116.601562 201.898438 116.601562 202.636719 116.601562 203.375 L 129.171875 203.375 C 128.429688 200.417969 127.691406 198.9375 126.949219 198.199219 Z M 126.949219 198.199219 "/>
<path style=" stroke:none;fill-rule:nonzero;fill:rgb(70.196078%,13.72549%,9.019608%);fill-opacity:1;" d="M 162.4375 216.6875 C 161.699219 218.167969 160.222656 219.644531 158.742188 220.386719 C 157.265625 221.125 155.785156 221.125 153.566406 221.125 C 151.351562 221.125 149.871094 220.386719 147.65625 219.644531 C 146.175781 218.90625 144.699219 217.425781 143.957031 215.949219 C 143.21875 214.46875 141.742188 212.992188 141.742188 210.773438 C 141 209.292969 140.261719 207.816406 140.261719 205.597656 C 140.261719 203.378906 140.261719 201.898438 141 199.683594 C 141.742188 198.203125 142.480469 195.984375 143.21875 195.246094 C 143.957031 193.765625 145.4375 193.027344 146.914062 191.546875 C 148.394531 190.808594 150.609375 190.070312 152.828125 190.070312 C 154.308594 190.070312 156.523438 190.070312 158.003906 190.808594 C 159.480469 191.546875 160.960938 192.289062 161.699219 193.765625 L 161.699219 178.976562 L 169.832031 178.976562 L 169.832031 218.914062 L 162.4375 218.914062 Z M 161.699219 201.898438 C 161.699219 201.15625 160.960938 199.679688 160.222656 198.9375 C 159.480469 198.199219 158.742188 197.460938 158.003906 196.722656 C 157.265625 195.980469 155.785156 195.980469 155.046875 195.980469 C 153.566406 195.980469 152.828125 195.980469 152.089844 196.722656 C 151.351562 197.460938 150.609375 198.199219 149.871094 198.9375 C 149.132812 199.679688 149.132812 200.417969 148.394531 201.898438 C 148.394531 202.636719 148.394531 204.113281 148.394531 205.59375 C 148.394531 207.074219 148.394531 207.8125 149.132812 209.289062 C 149.132812 210.769531 149.871094 211.507812 150.609375 212.25 C 151.351562 212.988281 152.089844 213.726562 152.828125 214.464844 C 153.566406 215.207031 155.046875 215.207031 155.785156 215.207031 C 157.265625 215.207031 158.003906 215.207031 158.742188 214.464844 C 159.480469 213.726562 160.222656 212.988281 160.960938 212.25 C 161.699219 211.507812 161.699219 210.03125 162.4375 209.289062 C 162.4375 207.8125 162.4375 207.074219 162.4375 205.59375 C 162.4375 204.113281 161.699219 203.375 161.699219 201.898438 Z M 161.699219 201.898438 "/>
<path style=" stroke:none;fill-rule:nonzero;fill:rgb(70.196078%,13.72549%,9.019608%);fill-opacity:1;" d="M 198.667969 210.035156 C 199.410156 210.773438 200.148438 211.511719 200.886719 212.25 C 201.625 212.992188 202.367188 212.992188 203.84375 213.730469 C 204.582031 213.730469 206.0625 214.46875 207.539062 214.46875 C 208.277344 214.46875 209.019531 214.46875 209.757812 214.46875 C 210.496094 214.46875 211.234375 213.730469 211.976562 213.730469 C 212.714844 212.992188 213.453125 212.992188 214.191406 212.25 C 214.933594 211.511719 214.933594 210.773438 214.933594 210.035156 C 214.933594 209.292969 214.933594 207.816406 214.191406 207.074219 C 213.453125 206.335938 212.714844 205.597656 211.234375 205.597656 C 209.757812 204.859375 209.019531 204.859375 207.539062 204.117188 C 206.0625 204.117188 204.582031 203.378906 203.105469 202.640625 C 201.625 202.640625 200.148438 201.898438 198.667969 201.160156 C 197.191406 200.421875 195.710938 199.683594 194.972656 198.941406 C 193.496094 198.203125 192.753906 196.722656 192.015625 195.984375 C 191.277344 194.507812 191.277344 193.027344 191.277344 191.546875 C 191.277344 189.332031 192.015625 187.851562 192.753906 186.371094 C 193.496094 184.894531 194.972656 183.414062 196.453125 182.675781 C 197.929688 181.9375 199.410156 181.195312 201.625 180.457031 C 203.105469 179.71875 205.324219 179.71875 206.800781 179.71875 C 209.019531 179.71875 211.234375 179.71875 212.714844 180.457031 C 214.933594 181.195312 216.410156 181.9375 217.890625 182.675781 C 219.367188 183.414062 220.84375 184.894531 221.585938 186.371094 C 222.324219 187.851562 223.0625 190.070312 223.0625 192.289062 L 214.933594 192.289062 C 214.933594 190.808594 214.933594 190.070312 214.195312 189.332031 C 213.457031 188.589844 213.457031 187.851562 212.71875 187.851562 C 211.976562 187.113281 211.238281 187.113281 210.5 187.113281 C 209.761719 187.113281 208.28125 187.113281 207.542969 187.113281 C 206.804688 187.113281 206.066406 187.113281 205.324219 187.113281 C 204.585938 187.113281 203.847656 187.851562 203.109375 187.851562 C 202.367188 188.589844 202.367188 188.589844 201.628906 189.332031 C 199.410156 189.332031 199.410156 190.070312 199.410156 190.808594 C 199.410156 191.546875 199.410156 192.289062 200.152344 193.027344 C 200.152344 193.765625 200.890625 193.765625 201.628906 194.507812 C 202.367188 195.246094 203.847656 195.246094 205.324219 195.984375 C 206.804688 196.722656 209.019531 196.722656 211.238281 197.464844 C 211.976562 197.464844 212.71875 198.203125 214.195312 198.203125 C 215.675781 198.941406 217.152344 198.941406 217.890625 200.421875 C 219.371094 201.160156 220.109375 202.640625 221.589844 204.117188 C 222.328125 205.597656 223.066406 207.074219 223.066406 209.292969 C 223.066406 210.773438 223.066406 212.992188 222.328125 214.46875 C 221.589844 215.949219 220.847656 217.425781 219.371094 218.167969 C 217.890625 219.644531 216.414062 220.386719 214.195312 221.125 C 211.976562 221.863281 209.761719 221.863281 206.800781 221.863281 C 204.582031 221.863281 202.367188 221.863281 200.148438 221.125 C 197.929688 220.386719 196.453125 219.644531 194.972656 218.90625 C 193.496094 217.425781 192.015625 215.949219 191.277344 214.46875 C 190.539062 212.992188 189.800781 210.773438 189.800781 207.816406 L 197.933594 207.816406 C 197.929688 208.550781 198.667969 209.289062 198.667969 210.035156 Z M 198.667969 210.035156 "/>
<path style=" stroke:none;fill-rule:nonzero;fill:rgb(70.196078%,13.72549%,9.019608%);fill-opacity:1;" d="M 243.03125 191.542969 L 243.03125 196.71875 L 237.117188 196.71875 L 237.117188 210.769531 C 237.117188 212.25 237.117188 212.988281 237.855469 213.726562 C 238.597656 214.464844 239.335938 214.464844 240.8125 214.464844 C 241.554688 214.464844 241.554688 214.464844 242.292969 214.464844 C 243.03125 214.464844 243.03125 214.464844 243.769531 214.464844 L 243.769531 220.382812 C 243.03125 220.382812 242.292969 220.382812 241.554688 220.382812 C 240.8125 220.382812 240.074219 220.382812 239.335938 220.382812 C 237.855469 220.382812 237.117188 220.382812 235.640625 220.382812 C 234.898438 220.382812 233.421875 219.640625 232.683594 219.640625 C 231.941406 218.902344 231.203125 218.164062 230.464844 217.425781 C 229.726562 216.683594 229.726562 215.207031 229.726562 213.726562 L 229.726562 196.71875 L 225.289062 196.71875 L 225.289062 191.542969 L 229.726562 191.542969 L 229.726562 182.667969 L 237.859375 182.667969 L 237.859375 191.542969 Z M 243.03125 191.542969 "/>
<path style=" stroke:none;fill-rule:nonzero;fill:rgb(70.196078%,13.72549%,9.019608%);fill-opacity:1;" d="M 248.207031 195.242188 C 248.945312 193.765625 250.421875 193.023438 251.164062 192.285156 C 252.640625 191.546875 254.121094 190.804688 255.597656 190.804688 C 257.078125 190.804688 258.554688 190.066406 260.035156 190.066406 C 261.511719 190.066406 262.988281 190.066406 264.46875 190.066406 C 265.945312 190.066406 267.425781 190.804688 268.902344 191.546875 C 270.382812 192.285156 271.121094 193.023438 271.859375 193.765625 C 272.601562 194.503906 273.339844 195.980469 273.339844 198.199219 L 273.339844 212.992188 C 273.339844 214.46875 273.339844 215.210938 273.339844 216.6875 C 273.339844 218.167969 274.078125 218.90625 274.078125 219.644531 L 265.945312 219.644531 C 265.945312 218.90625 265.945312 218.90625 265.945312 218.167969 C 265.945312 217.425781 265.945312 217.425781 265.945312 216.6875 C 264.464844 218.167969 262.988281 218.90625 261.507812 219.644531 C 260.03125 220.386719 257.8125 220.386719 256.335938 220.386719 C 254.855469 220.386719 253.378906 220.386719 252.636719 219.644531 C 251.160156 219.644531 250.421875 218.90625 249.679688 218.167969 C 248.941406 217.425781 248.203125 216.6875 247.464844 215.210938 C 246.722656 214.46875 246.722656 212.992188 246.722656 211.511719 C 246.722656 210.035156 246.722656 208.554688 247.464844 207.816406 C 248.203125 207.074219 248.941406 205.597656 249.679688 205.597656 C 250.421875 204.859375 251.898438 204.859375 252.636719 204.117188 C 254.117188 204.117188 254.855469 203.378906 256.335938 203.378906 C 257.8125 203.378906 258.550781 203.378906 260.03125 202.640625 C 261.507812 202.640625 262.246094 202.640625 262.988281 201.898438 C 263.726562 201.898438 264.464844 201.160156 265.203125 201.160156 C 265.945312 200.421875 265.945312 200.421875 265.945312 198.941406 C 265.945312 198.203125 265.945312 197.464844 265.203125 196.722656 C 265.203125 195.984375 264.464844 195.984375 263.726562 195.246094 C 262.988281 195.246094 262.988281 194.507812 262.246094 194.507812 C 261.507812 194.507812 260.769531 194.507812 260.03125 194.507812 C 258.550781 194.507812 257.074219 194.507812 256.335938 195.246094 C 255.59375 195.984375 254.855469 196.722656 254.855469 198.941406 L 246.722656 198.941406 C 246.726562 198.199219 247.464844 196.722656 248.207031 195.242188 Z M 263.734375 207.074219 C 262.992188 207.074219 262.992188 207.074219 262.253906 207.8125 C 261.515625 207.8125 260.777344 207.8125 260.777344 207.8125 C 260.035156 207.8125 259.296875 207.8125 258.558594 207.8125 C 257.820312 207.8125 257.078125 207.8125 257.078125 208.550781 C 256.339844 208.550781 256.339844 209.289062 255.601562 209.289062 C 254.863281 209.289062 254.863281 210.03125 254.863281 210.769531 C 254.863281 211.507812 254.121094 211.507812 254.121094 212.25 C 254.121094 212.988281 254.121094 213.726562 254.863281 213.726562 C 254.863281 214.464844 255.601562 214.464844 255.601562 215.207031 C 256.339844 215.207031 256.339844 215.945312 257.078125 215.945312 C 257.820312 215.945312 258.558594 215.945312 258.558594 215.945312 C 260.035156 215.945312 261.515625 215.945312 262.253906 215.207031 C 262.992188 214.464844 263.734375 213.726562 264.472656 212.988281 C 265.210938 212.25 265.210938 211.507812 265.210938 210.769531 C 265.210938 210.03125 265.210938 209.289062 265.210938 209.289062 L 265.210938 206.332031 C 264.472656 206.332031 264.472656 206.332031 263.734375 207.074219 Z M 263.734375 207.074219 "/>
<path style=" stroke:none;fill-rule:nonzero;fill:rgb(70.196078%,13.72549%,9.019608%);fill-opacity:1;" d="M 294.785156 191.542969 L 294.785156 196.71875 L 288.871094 196.71875 L 288.871094 210.769531 C 288.871094 212.25 288.871094 212.988281 289.609375 213.726562 C 290.351562 214.464844 291.089844 214.464844 292.566406 214.464844 C 293.308594 214.464844 293.308594 214.464844 294.046875 214.464844 C 294.785156 214.464844 294.785156 214.464844 295.523438 214.464844 L 295.523438 220.382812 C 294.785156 220.382812 294.046875 220.382812 293.308594 220.382812 C 292.566406 220.382812 291.828125 220.382812 291.089844 220.382812 C 289.609375 220.382812 288.871094 220.382812 287.394531 220.382812 C 286.652344 220.382812 285.175781 219.640625 284.4375 219.640625 C 283.699219 218.902344 282.957031 218.164062 282.21875 217.425781 C 281.480469 216.683594 281.480469 215.207031 281.480469 213.726562 L 281.480469 196.71875 L 276.304688 196.71875 L 276.304688 191.542969 L 281.480469 191.542969 L 281.480469 182.667969 L 289.613281 182.667969 L 289.613281 191.542969 Z M 294.785156 191.542969 "/>
<path style=" stroke:none;fill-rule:nonzero;fill:rgb(70.196078%,13.72549%,9.019608%);fill-opacity:1;" d="M 307.355469 212.992188 C 308.832031 214.46875 310.3125 214.46875 312.53125 214.46875 C 314.007812 214.46875 315.488281 213.730469 316.964844 212.992188 C 318.445312 212.25 319.183594 211.511719 319.183594 210.773438 L 325.835938 210.773438 C 324.355469 214.46875 322.878906 216.6875 320.660156 218.167969 C 318.445312 219.648438 315.488281 220.386719 312.527344 220.386719 C 310.308594 220.386719 308.089844 220.386719 306.613281 219.648438 C 305.132812 218.910156 302.917969 218.167969 302.175781 216.691406 C 300.699219 215.210938 299.960938 213.734375 299.222656 211.515625 C 298.480469 209.296875 298.480469 207.820312 298.480469 205.601562 C 298.480469 203.382812 298.480469 201.164062 299.222656 199.683594 C 299.960938 197.46875 300.699219 195.988281 302.175781 194.507812 C 303.65625 193.03125 305.132812 192.292969 306.613281 191.550781 C 308.089844 190.8125 310.308594 190.074219 312.527344 190.074219 C 314.746094 190.074219 316.960938 190.8125 319.179688 191.550781 C 320.65625 192.292969 322.875 193.769531 323.613281 195.25 C 325.09375 196.726562 325.832031 198.945312 325.832031 200.425781 C 326.570312 202.644531 326.570312 204.859375 326.570312 207.078125 L 305.871094 207.078125 C 305.875 210.035156 305.875 212.25 307.355469 212.992188 Z M 316.230469 198.199219 C 315.488281 197.460938 314.011719 196.722656 311.792969 196.722656 C 310.316406 196.722656 309.574219 196.722656 308.835938 197.460938 C 308.097656 198.199219 307.359375 198.199219 306.621094 198.9375 C 305.878906 199.679688 305.878906 200.417969 305.878906 201.15625 C 305.878906 201.898438 305.878906 202.636719 305.878906 203.375 L 318.449219 203.375 C 317.707031 200.417969 316.96875 198.9375 316.230469 198.199219 Z M 316.230469 198.199219 "/>
<path style=" stroke:none;fill-rule:nonzero;fill:rgb(70.196078%,13.72549%,9.019608%);fill-opacity:1;" d="M 337.667969 212.992188 C 337.667969 213.730469 338.410156 214.46875 339.148438 214.46875 C 339.886719 215.210938 339.886719 215.210938 340.625 215.210938 C 341.363281 215.210938 342.105469 215.210938 342.84375 215.210938 C 343.582031 215.210938 344.320312 215.210938 344.320312 215.210938 C 345.0625 215.210938 345.800781 215.210938 345.800781 214.46875 C 346.539062 214.46875 346.539062 213.730469 347.277344 212.992188 C 347.277344 212.25 348.019531 212.25 348.019531 211.511719 C 348.019531 210.035156 347.277344 209.292969 345.800781 208.554688 C 344.320312 207.816406 342.105469 207.074219 339.148438 207.074219 C 337.667969 207.074219 336.929688 206.335938 335.453125 206.335938 C 334.710938 206.335938 333.234375 205.597656 332.496094 204.859375 C 331.753906 204.117188 331.015625 203.378906 330.277344 202.640625 C 329.539062 201.898438 329.539062 200.421875 329.539062 199.683594 C 329.539062 197.464844 329.539062 195.984375 330.277344 195.246094 C 331.015625 193.765625 331.753906 193.027344 333.234375 192.289062 C 334.710938 191.546875 335.453125 190.808594 336.929688 190.808594 C 338.410156 190.808594 339.886719 190.070312 341.363281 190.070312 C 342.84375 190.070312 344.320312 190.070312 345.800781 190.808594 C 347.277344 190.808594 348.757812 191.546875 349.496094 192.289062 C 350.976562 193.027344 351.714844 193.765625 352.453125 195.246094 C 353.191406 196.722656 353.933594 198.203125 353.933594 199.683594 L 346.535156 199.683594 C 346.535156 198.203125 345.796875 197.464844 345.058594 196.722656 C 344.320312 195.984375 342.839844 195.984375 341.363281 195.984375 C 340.621094 195.984375 340.621094 195.984375 339.882812 195.984375 C 339.144531 195.984375 339.144531 195.984375 338.40625 195.984375 C 337.667969 195.984375 337.667969 196.722656 337.667969 196.722656 C 337.667969 196.722656 336.925781 197.464844 336.925781 198.203125 C 336.925781 198.941406 336.925781 199.683594 337.667969 199.683594 C 338.40625 200.421875 339.144531 200.421875 339.882812 200.421875 C 340.621094 200.421875 341.363281 201.160156 342.839844 201.160156 C 343.578125 201.160156 345.058594 201.898438 345.796875 201.898438 C 347.277344 201.898438 348.015625 202.640625 349.492188 202.640625 C 350.234375 202.640625 351.710938 203.378906 352.449219 204.117188 C 353.1875 204.859375 353.929688 205.597656 354.667969 206.335938 C 355.40625 207.074219 355.40625 208.554688 355.40625 210.035156 C 355.40625 212.25 354.667969 213.730469 353.929688 214.46875 C 353.1875 215.949219 352.449219 216.6875 350.972656 217.425781 C 349.492188 218.167969 348.015625 218.90625 346.535156 218.90625 C 345.058594 218.90625 343.578125 219.644531 341.363281 219.644531 C 339.882812 219.644531 338.40625 219.644531 336.1875 218.90625 C 334.710938 218.90625 333.230469 218.167969 331.753906 217.425781 C 330.273438 216.6875 329.535156 215.949219 328.796875 214.46875 C 328.054688 212.992188 327.316406 211.511719 327.316406 209.292969 L 334.710938 209.292969 C 336.929688 211.511719 336.929688 212.25 337.667969 212.992188 Z M 337.667969 212.992188 "/>
<path style=" stroke:none;fill-rule:nonzero;fill:rgb(70.196078%,13.72549%,9.019608%);fill-opacity:1;" d="M 373.898438 187.84375 L 373.898438 180.449219 L 406.429688 180.449219 L 406.429688 187.84375 L 394.601562 187.84375 L 394.601562 220.386719 L 385.726562 220.386719 L 385.726562 187.84375 Z M 373.898438 187.84375 "/>
<path style=" stroke:none;fill-rule:nonzero;fill:rgb(70.196078%,13.72549%,9.019608%);fill-opacity:1;" d="M 404.214844 199.679688 C 404.953125 197.460938 405.691406 195.980469 407.171875 194.503906 C 408.648438 193.023438 410.128906 192.285156 411.605469 191.546875 C 413.085938 190.804688 415.300781 190.804688 417.519531 190.804688 C 419.738281 190.804688 421.953125 190.804688 423.433594 191.546875 C 424.910156 192.285156 427.128906 193.023438 427.867188 194.503906 C 429.347656 195.980469 430.085938 197.460938 430.824219 199.679688 C 431.566406 201.898438 431.566406 203.375 431.566406 205.59375 C 431.566406 207.8125 431.566406 210.03125 430.824219 211.507812 C 430.085938 213.726562 429.347656 215.207031 427.867188 215.945312 C 426.390625 217.425781 424.910156 218.164062 423.433594 218.902344 C 421.953125 219.640625 419.738281 219.640625 417.519531 219.640625 C 415.300781 219.640625 413.085938 219.640625 411.605469 218.902344 C 410.128906 218.164062 407.910156 217.425781 407.171875 215.945312 C 405.691406 214.464844 404.953125 212.988281 404.214844 211.507812 C 403.472656 209.289062 403.472656 207.8125 403.472656 205.59375 C 403.472656 203.375 403.472656 201.15625 404.214844 199.679688 Z M 411.605469 209.289062 C 411.605469 210.03125 412.34375 211.507812 413.085938 212.25 C 413.824219 212.988281 414.5625 213.726562 415.300781 214.464844 C 416.042969 215.207031 417.519531 215.207031 418.996094 215.207031 C 420.476562 215.207031 421.214844 215.207031 422.695312 214.464844 C 423.433594 213.726562 424.171875 212.988281 424.910156 212.25 C 425.652344 211.507812 425.652344 210.03125 426.390625 209.289062 C 426.390625 208.550781 426.390625 207.074219 426.390625 205.59375 C 426.390625 204.113281 426.390625 203.375 426.390625 201.898438 C 426.390625 200.417969 425.652344 199.679688 424.910156 198.9375 C 424.171875 198.199219 423.433594 197.460938 422.695312 196.722656 C 421.953125 195.980469 420.476562 195.980469 418.996094 195.980469 C 417.519531 195.980469 416.78125 195.980469 415.300781 196.722656 C 414.5625 197.460938 413.824219 198.199219 413.085938 198.9375 C 412.34375 199.679688 412.34375 200.417969 411.605469 201.898438 C 411.605469 203.375 411.605469 204.113281 411.605469 205.59375 C 411.605469 207.074219 411.605469 207.8125 411.605469 209.289062 Z M 411.605469 209.289062 "/>
<path style=" stroke:none;fill-rule:nonzero;fill:rgb(70.196078%,13.72549%,9.019608%);fill-opacity:1;" d="M 458.1875 220.386719 L 458.1875 216.6875 C 457.449219 218.167969 455.972656 219.644531 454.492188 220.386719 C 453.015625 221.125 451.535156 221.863281 449.316406 221.863281 C 447.101562 221.863281 445.621094 221.863281 444.144531 221.125 C 442.664062 220.386719 441.925781 219.644531 441.1875 218.90625 C 440.449219 218.167969 439.707031 216.6875 439.707031 215.210938 C 439.707031 213.730469 438.96875 212.25 438.96875 210.035156 L 438.96875 192.285156 L 447.105469 192.285156 L 447.105469 207.816406 C 447.105469 210.035156 447.105469 212.25 448.582031 212.992188 C 449.320312 214.46875 450.800781 214.46875 452.277344 214.46875 C 454.496094 214.46875 455.972656 213.730469 456.714844 212.25 C 457.453125 210.773438 458.191406 208.554688 458.191406 205.597656 L 458.191406 190.804688 L 465.585938 190.804688 L 465.585938 219.648438 L 458.191406 219.648438 L 458.191406 220.386719 Z M 458.1875 220.386719 "/>
<path style=" stroke:none;fill-rule:nonzero;fill:rgb(70.196078%,13.72549%,9.019608%);fill-opacity:1;" d="M 478.890625 191.542969 L 478.890625 196.71875 C 479.628906 195.980469 479.628906 195.238281 480.367188 194.5 C 481.105469 193.761719 481.847656 193.019531 482.585938 192.28125 C 483.324219 191.542969 484.0625 191.542969 485.542969 190.804688 C 486.28125 190.804688 487.761719 190.0625 488.5 190.0625 C 489.238281 190.0625 489.238281 190.0625 489.976562 190.0625 L 489.976562 197.460938 C 489.976562 197.460938 489.238281 197.460938 488.5 197.460938 C 487.761719 197.460938 487.761719 197.460938 487.019531 197.460938 C 485.542969 197.460938 484.0625 197.460938 483.324219 198.199219 C 482.585938 198.9375 481.847656 199.679688 481.105469 200.417969 C 480.367188 201.15625 480.367188 201.898438 479.628906 203.375 C 479.628906 204.855469 478.890625 205.59375 478.890625 207.074219 L 478.890625 220.386719 L 470.753906 220.386719 L 470.753906 191.542969 Z M 478.890625 191.542969 "/>
<path style=" stroke:none;fill-rule:nonzero;fill:rgb(70.196078%,13.72549%,9.019608%);fill-opacity:1;" d="M 509.203125 192.28125 C 509.941406 190.0625 511.421875 187.84375 512.898438 185.628906 C 514.378906 183.410156 516.597656 181.929688 518.8125 181.191406 C 521.03125 180.453125 523.988281 179.710938 526.949219 179.710938 C 529.90625 179.710938 532.863281 180.453125 535.082031 181.191406 C 537.300781 181.929688 539.515625 183.410156 540.996094 185.628906 C 542.472656 187.84375 543.953125 190.0625 544.691406 192.28125 C 546.910156 194.5 546.910156 197.457031 546.910156 200.417969 C 546.910156 203.378906 546.171875 206.332031 545.429688 208.554688 C 544.691406 210.773438 543.214844 212.992188 541.734375 215.210938 C 540.257812 217.425781 538.039062 218.167969 535.820312 219.644531 C 533.605469 220.386719 530.648438 221.125 527.6875 221.125 C 524.726562 221.125 521.773438 220.386719 519.550781 219.644531 C 517.335938 218.90625 515.117188 217.425781 513.640625 215.210938 C 512.160156 212.992188 510.683594 211.511719 509.941406 208.554688 C 509.203125 206.335938 508.464844 203.378906 508.464844 200.417969 C 507.726562 197.460938 508.464844 194.5 509.203125 192.28125 Z M 517.339844 205.59375 C 518.078125 207.074219 518.078125 208.550781 519.554688 210.03125 C 520.292969 211.507812 521.773438 212.25 523.25 212.988281 C 524.730469 213.726562 526.207031 214.464844 528.425781 214.464844 C 530.644531 214.464844 532.121094 213.726562 533.601562 212.988281 C 535.078125 212.25 535.816406 211.507812 537.296875 210.03125 C 538.035156 208.550781 538.773438 207.074219 539.515625 205.59375 C 540.253906 204.113281 540.253906 202.636719 540.253906 200.417969 C 540.253906 198.9375 540.253906 196.722656 539.515625 195.242188 C 538.773438 193.765625 538.773438 192.285156 537.296875 190.804688 C 536.558594 189.328125 535.078125 188.589844 533.601562 187.847656 C 532.121094 187.109375 530.644531 186.371094 528.425781 186.371094 C 526.207031 186.371094 524.730469 187.109375 523.25 187.847656 C 521.773438 188.589844 521.035156 189.328125 519.554688 190.804688 C 518.816406 192.285156 518.078125 193.765625 517.339844 195.242188 C 516.597656 196.722656 516.597656 198.9375 516.597656 200.417969 C 516.597656 201.898438 516.597656 203.375 517.339844 205.59375 Z M 517.339844 205.59375 "/>
<path style=" stroke:none;fill-rule:nonzero;fill:rgb(70.196078%,13.72549%,9.019608%);fill-opacity:1;" d="M 559.484375 191.542969 L 559.484375 195.238281 C 560.222656 193.761719 561.699219 192.28125 563.179688 191.542969 C 564.65625 190.804688 566.136719 190.804688 568.351562 190.804688 C 570.570312 190.804688 572.789062 191.542969 574.265625 192.28125 C 575.746094 193.019531 577.222656 194.5 578.703125 195.980469 C 580.179688 197.457031 580.917969 198.9375 580.917969 201.15625 C 581.660156 203.371094 581.660156 204.851562 581.660156 207.070312 C 581.660156 209.289062 581.660156 210.765625 580.917969 212.984375 C 580.179688 214.464844 579.441406 216.679688 578.703125 217.421875 C 577.960938 218.898438 576.484375 219.640625 575.007812 220.378906 C 573.527344 221.117188 571.308594 221.855469 569.09375 221.855469 C 567.613281 221.855469 565.394531 221.855469 563.917969 221.117188 C 562.4375 220.378906 560.960938 219.640625 560.222656 218.160156 L 560.222656 229.992188 L 552.085938 229.992188 L 552.085938 190.804688 L 559.484375 190.804688 Z M 569.832031 214.46875 C 570.570312 213.730469 571.308594 212.992188 572.050781 212.25 C 572.789062 211.511719 572.789062 210.773438 573.527344 209.292969 C 573.527344 207.816406 573.527344 207.074219 573.527344 205.597656 C 573.527344 204.117188 573.527344 203.378906 573.527344 201.898438 C 573.527344 200.421875 572.789062 199.683594 572.050781 198.941406 C 571.308594 198.203125 570.570312 197.464844 569.832031 196.722656 C 569.09375 195.984375 567.613281 195.984375 566.875 195.984375 C 565.394531 195.984375 564.65625 195.984375 563.917969 196.722656 C 563.179688 197.464844 562.4375 198.203125 561.699219 198.941406 C 560.960938 199.683594 560.960938 200.421875 560.222656 201.898438 C 560.222656 203.378906 560.222656 204.117188 560.222656 205.597656 C 560.222656 207.074219 560.222656 207.816406 560.222656 209.292969 C 560.222656 210.773438 560.960938 211.511719 561.699219 212.25 C 562.4375 212.992188 563.179688 213.730469 563.917969 214.46875 C 564.65625 215.210938 566.136719 215.210938 566.875 215.210938 C 568.351562 215.210938 569.09375 214.46875 569.832031 214.46875 Z M 569.832031 214.46875 "/>
<path style=" stroke:none;fill-rule:nonzero;fill:rgb(70.196078%,13.72549%,9.019608%);fill-opacity:1;" d="M 594.972656 212.992188 C 596.449219 214.46875 597.925781 214.46875 600.144531 214.46875 C 601.625 214.46875 603.101562 213.730469 604.582031 212.992188 C 606.058594 212.25 606.796875 211.511719 606.796875 210.773438 L 613.449219 210.773438 C 611.972656 214.46875 610.496094 216.6875 608.277344 218.167969 C 606.058594 219.652344 603.101562 220.386719 600.140625 220.386719 C 597.925781 220.386719 595.707031 220.386719 594.226562 219.648438 C 592.75 218.910156 590.53125 218.167969 589.792969 216.691406 C 588.316406 215.210938 587.574219 213.734375 586.835938 211.515625 C 586.097656 209.296875 586.097656 207.820312 586.097656 205.601562 C 586.097656 203.382812 586.097656 201.164062 586.835938 199.683594 C 587.574219 197.46875 588.316406 195.988281 589.792969 194.507812 C 591.273438 193.03125 592.75 192.292969 594.226562 191.550781 C 595.707031 190.8125 597.925781 190.074219 600.140625 190.074219 C 602.359375 190.074219 604.578125 190.8125 606.796875 191.550781 C 608.273438 192.292969 609.75 193.769531 611.230469 195.25 C 612.707031 196.726562 613.449219 198.945312 613.449219 200.425781 C 614.1875 202.644531 614.1875 204.859375 614.1875 207.078125 L 593.484375 207.078125 C 592.753906 210.035156 593.492188 212.25 594.972656 212.992188 Z M 603.84375 198.199219 C 603.105469 197.460938 601.625 196.722656 599.410156 196.722656 C 597.929688 196.722656 597.191406 196.722656 596.453125 197.460938 C 595.714844 198.199219 594.972656 198.199219 594.234375 198.9375 C 593.496094 199.679688 593.496094 200.417969 593.496094 201.15625 C 593.496094 201.898438 593.496094 202.636719 593.496094 203.375 L 606.066406 203.375 C 605.324219 200.417969 604.582031 198.9375 603.84375 198.199219 Z M 603.84375 198.199219 "/>
<path style=" stroke:none;fill-rule:nonzero;fill:rgb(70.196078%,13.72549%,9.019608%);fill-opacity:1;" d="M 626.023438 191.542969 L 626.023438 196.71875 C 626.761719 195.980469 626.761719 195.238281 627.503906 194.5 C 628.242188 193.761719 628.980469 193.019531 629.71875 192.28125 C 630.460938 191.542969 631.199219 191.542969 632.675781 190.804688 C 633.417969 190.804688 634.894531 190.0625 635.632812 190.0625 C 636.371094 190.0625 636.371094 190.0625 637.113281 190.0625 L 637.113281 197.460938 C 636.371094 197.460938 636.371094 197.460938 635.632812 197.460938 C 634.894531 197.460938 634.894531 197.460938 634.15625 197.460938 C 632.675781 197.460938 631.199219 197.460938 630.460938 198.199219 C 629.71875 198.9375 628.980469 199.679688 628.242188 200.417969 C 627.503906 201.15625 627.503906 201.898438 626.761719 203.375 C 626.761719 204.855469 626.023438 205.59375 626.023438 207.074219 L 626.023438 220.386719 L 617.890625 220.386719 L 617.890625 191.542969 Z M 626.023438 191.542969 "/>
<path style=" stroke:none;fill-rule:nonzero;fill:rgb(70.196078%,13.72549%,9.019608%);fill-opacity:1;" d="M 641.550781 195.242188 C 642.289062 193.765625 643.769531 193.023438 644.507812 192.285156 C 645.984375 191.546875 647.464844 190.804688 648.941406 190.804688 C 650.421875 190.804688 651.898438 190.066406 653.378906 190.066406 C 654.855469 190.066406 656.335938 190.066406 657.8125 190.066406 C 659.292969 190.066406 660.769531 190.804688 662.25 191.546875 C 663.726562 192.285156 664.464844 193.023438 665.207031 193.765625 C 665.945312 194.503906 666.683594 195.980469 666.683594 198.199219 L 666.683594 212.992188 C 666.683594 214.46875 666.683594 215.210938 666.683594 216.6875 C 666.683594 218.167969 667.421875 218.90625 667.421875 219.644531 L 659.289062 219.644531 C 659.289062 218.90625 659.289062 218.90625 658.550781 218.167969 C 658.550781 217.425781 658.550781 217.425781 658.550781 216.6875 C 657.070312 218.167969 655.59375 218.90625 654.113281 219.644531 C 652.636719 220.386719 650.417969 220.386719 648.941406 220.386719 C 647.460938 220.386719 645.984375 220.386719 645.242188 219.644531 C 643.765625 219.644531 643.027344 218.90625 642.285156 218.167969 C 641.546875 217.425781 640.808594 216.6875 640.070312 215.210938 C 639.328125 214.46875 639.328125 212.992188 639.328125 211.511719 C 639.328125 210.035156 639.328125 208.554688 640.070312 207.816406 C 640.808594 207.074219 641.546875 205.597656 642.285156 205.597656 C 643.027344 204.859375 644.503906 204.859375 645.242188 204.117188 C 646.722656 204.117188 647.460938 203.378906 648.941406 203.378906 C 650.417969 203.378906 651.15625 203.378906 652.636719 202.640625 C 654.113281 202.640625 654.851562 202.640625 655.59375 201.898438 C 656.332031 201.898438 657.070312 201.160156 657.808594 201.160156 C 658.550781 200.421875 658.550781 200.421875 658.550781 198.941406 C 658.550781 198.203125 658.550781 197.464844 657.808594 196.722656 C 657.808594 195.984375 657.070312 195.984375 656.332031 195.246094 C 655.59375 195.246094 655.59375 194.507812 654.851562 194.507812 C 654.113281 194.507812 653.375 194.507812 652.636719 194.507812 C 651.15625 194.507812 649.679688 194.507812 648.941406 195.246094 C 648.199219 195.984375 647.460938 196.722656 647.460938 198.941406 L 639.328125 198.941406 C 640.070312 198.199219 640.070312 196.722656 641.550781 195.242188 Z M 657.078125 207.074219 C 656.335938 207.074219 656.335938 207.074219 655.597656 207.8125 C 654.859375 207.8125 654.121094 207.8125 654.121094 207.8125 C 654.121094 207.8125 652.640625 207.8125 651.902344 207.8125 C 651.164062 207.8125 650.425781 207.8125 650.425781 208.550781 C 649.683594 208.550781 649.683594 209.289062 648.945312 209.289062 C 648.207031 209.289062 648.207031 210.03125 648.207031 210.769531 C 648.207031 211.507812 647.46875 211.507812 647.46875 212.25 C 647.46875 212.988281 647.46875 213.726562 648.207031 213.726562 C 648.207031 214.464844 648.945312 214.464844 648.945312 215.207031 C 649.683594 215.207031 649.683594 215.945312 650.425781 215.945312 C 651.164062 215.945312 651.902344 215.945312 651.902344 215.945312 C 653.382812 215.945312 654.859375 215.945312 655.597656 215.207031 C 656.335938 214.464844 657.078125 213.726562 657.816406 212.988281 C 658.554688 212.25 658.554688 211.507812 658.554688 210.769531 C 658.554688 210.03125 658.554688 209.289062 658.554688 209.289062 L 658.554688 206.332031 C 657.820312 206.332031 657.078125 206.332031 657.078125 207.074219 Z M 657.078125 207.074219 "/>
<path style=" stroke:none;fill-rule:nonzero;fill:rgb(70.196078%,13.72549%,9.019608%);fill-opacity:1;" d="M 688.132812 191.542969 L 688.132812 196.71875 L 682.21875 196.71875 L 682.21875 210.769531 C 682.21875 212.25 682.21875 212.988281 682.957031 213.726562 C 683.699219 214.464844 684.4375 214.464844 685.914062 214.464844 C 686.65625 214.464844 686.65625 214.464844 687.394531 214.464844 C 688.132812 214.464844 688.132812 214.464844 688.871094 214.464844 L 688.871094 220.382812 C 688.132812 220.382812 687.394531 220.382812 686.65625 220.382812 C 685.914062 220.382812 685.175781 220.382812 684.4375 220.382812 C 682.957031 220.382812 682.21875 220.382812 680.742188 220.382812 C 680.003906 220.382812 678.523438 219.640625 677.785156 219.640625 C 677.046875 218.902344 676.304688 218.164062 675.566406 217.425781 C 674.828125 216.683594 674.828125 215.207031 674.828125 213.726562 L 674.828125 196.71875 L 669.652344 196.71875 L 669.652344 191.542969 L 674.828125 191.542969 L 674.828125 182.667969 L 682.960938 182.667969 L 682.960938 191.542969 Z M 688.132812 191.542969 "/>
<path style=" stroke:none;fill-rule:nonzero;fill:rgb(70.196078%,13.72549%,9.019608%);fill-opacity:1;" d="M 691.828125 199.679688 C 692.570312 197.460938 693.308594 195.980469 694.785156 194.503906 C 696.265625 193.023438 697.742188 192.285156 699.222656 191.546875 C 700.699219 190.804688 702.917969 190.804688 705.136719 190.804688 C 707.351562 190.804688 709.570312 190.804688 711.046875 191.546875 C 712.527344 192.285156 714.746094 193.023438 715.484375 194.503906 C 716.960938 195.980469 717.703125 197.460938 718.441406 199.679688 C 719.179688 201.898438 719.179688 203.375 719.179688 205.59375 C 719.179688 207.8125 719.179688 210.03125 718.441406 211.507812 C 717.703125 213.726562 716.960938 215.207031 715.484375 215.945312 C 714.003906 217.425781 712.527344 218.164062 711.046875 218.902344 C 709.570312 219.640625 707.351562 219.640625 705.136719 219.640625 C 702.917969 219.640625 700.699219 219.640625 699.222656 218.902344 C 697.742188 218.164062 695.527344 217.425781 694.785156 215.945312 C 693.308594 214.464844 692.570312 212.988281 691.828125 211.507812 C 691.089844 209.289062 691.089844 207.8125 691.089844 205.59375 C 691.089844 203.375 691.089844 201.15625 691.828125 199.679688 Z M 699.222656 209.289062 C 699.222656 210.03125 699.960938 211.507812 700.699219 212.25 C 701.4375 212.988281 702.179688 213.726562 702.917969 214.464844 C 703.65625 215.207031 705.136719 215.207031 706.613281 215.207031 C 708.09375 215.207031 708.832031 215.207031 710.308594 214.464844 C 711.046875 213.726562 711.789062 212.988281 712.527344 212.25 C 713.265625 211.507812 713.265625 210.03125 714.003906 209.289062 C 714.003906 208.550781 714.003906 207.074219 714.003906 205.59375 C 714.003906 204.113281 714.003906 203.375 714.003906 201.898438 C 714.003906 200.417969 713.265625 199.679688 712.527344 198.9375 C 711.789062 198.199219 711.046875 197.460938 710.308594 196.722656 C 709.570312 195.980469 708.09375 195.980469 706.613281 195.980469 C 705.136719 195.980469 704.394531 195.980469 702.917969 196.722656 C 702.179688 197.460938 701.4375 198.199219 700.699219 198.9375 C 699.960938 199.679688 699.960938 200.417969 699.222656 201.898438 C 699.222656 203.375 699.222656 204.113281 699.222656 205.59375 C 699.222656 207.074219 699.222656 207.8125 699.222656 209.289062 Z M 699.222656 209.289062 "/>
<path style=" stroke:none;fill-rule:nonzero;fill:rgb(70.196078%,13.72549%,9.019608%);fill-opacity:1;" d="M 733.234375 191.542969 L 733.234375 196.71875 C 733.234375 195.980469 733.972656 195.238281 734.714844 194.5 C 735.453125 193.761719 736.191406 193.019531 736.929688 192.28125 C 737.667969 191.542969 738.410156 191.542969 739.886719 190.804688 C 740.625 190.804688 742.105469 190.0625 742.84375 190.0625 C 743.582031 190.0625 744.324219 190.0625 744.324219 190.0625 L 744.324219 197.460938 C 743.582031 197.460938 743.582031 197.460938 742.84375 197.460938 C 742.105469 197.460938 742.105469 197.460938 741.367188 197.460938 C 739.886719 197.460938 738.410156 197.460938 737.667969 198.199219 C 736.929688 198.9375 736.191406 199.679688 735.453125 200.417969 C 734.714844 201.15625 734.714844 201.898438 733.972656 203.375 C 733.972656 204.855469 733.234375 205.59375 733.234375 207.074219 L 733.234375 220.386719 L 725.101562 220.386719 L 725.101562 191.542969 Z M 733.234375 191.542969 "/>
<path style=" stroke:none;fill-rule:nonzero;fill:rgb(70.196078%,13.72549%,9.019608%);fill-opacity:1;" d="M 754.675781 212.992188 C 754.675781 213.730469 755.414062 214.46875 756.152344 214.46875 C 756.890625 215.210938 757.632812 215.210938 758.371094 215.210938 C 759.109375 215.210938 759.847656 215.210938 760.589844 215.210938 C 761.328125 215.210938 762.066406 215.210938 762.066406 215.210938 C 762.804688 215.210938 763.546875 215.210938 763.546875 214.46875 C 764.285156 214.46875 764.285156 213.730469 765.023438 212.992188 C 765.023438 212.25 765.761719 212.25 765.761719 211.511719 C 765.761719 210.035156 765.023438 209.292969 763.546875 208.554688 C 762.066406 207.816406 759.847656 207.074219 756.890625 207.074219 C 755.414062 207.074219 754.675781 206.335938 753.195312 206.335938 C 752.457031 206.335938 750.980469 205.597656 750.238281 204.859375 C 749.5 204.117188 748.761719 203.378906 748.023438 202.640625 C 747.28125 201.898438 747.28125 200.421875 747.28125 199.683594 C 747.28125 197.464844 747.28125 195.984375 748.023438 195.246094 C 748.761719 193.765625 749.5 193.027344 750.980469 192.289062 C 752.457031 191.546875 753.195312 190.808594 754.675781 190.808594 C 756.152344 190.808594 757.632812 190.070312 759.109375 190.070312 C 760.589844 190.070312 762.066406 190.070312 763.546875 190.808594 C 765.023438 190.808594 766.503906 191.546875 767.242188 192.289062 C 768.71875 193.027344 769.460938 193.765625 770.199219 195.246094 C 770.9375 196.722656 771.675781 198.203125 771.675781 199.683594 L 764.28125 199.683594 C 764.28125 198.203125 763.542969 197.464844 762.804688 196.722656 C 762.0625 195.984375 760.585938 195.984375 759.105469 195.984375 C 758.367188 195.984375 758.367188 195.984375 757.628906 195.984375 C 756.890625 195.984375 756.890625 195.984375 756.148438 195.984375 C 755.410156 195.984375 755.410156 196.722656 755.410156 196.722656 C 755.410156 196.722656 754.671875 197.464844 754.671875 198.203125 C 754.671875 198.941406 754.671875 199.683594 755.410156 199.683594 C 756.148438 200.421875 756.890625 200.421875 757.628906 200.421875 C 758.367188 200.421875 759.105469 201.160156 760.585938 201.160156 C 761.324219 201.160156 762.804688 201.898438 763.542969 201.898438 C 765.019531 201.898438 765.761719 202.640625 767.238281 202.640625 C 767.976562 202.640625 769.457031 203.378906 770.195312 204.117188 C 770.933594 204.859375 771.671875 205.597656 772.414062 206.335938 C 773.152344 207.074219 773.152344 208.554688 773.152344 210.035156 C 773.152344 212.25 772.414062 213.730469 771.671875 214.46875 C 770.933594 215.949219 770.195312 216.6875 768.714844 217.425781 C 767.238281 218.167969 765.761719 218.90625 764.28125 218.90625 C 762.804688 218.90625 761.324219 219.644531 759.105469 219.644531 C 757.628906 219.644531 756.148438 219.644531 753.933594 218.90625 C 752.453125 218.90625 750.976562 218.167969 749.496094 217.425781 C 748.019531 216.6875 747.28125 215.949219 746.539062 214.46875 C 745.800781 212.992188 745.0625 211.511719 745.0625 209.292969 L 752.457031 209.292969 C 753.9375 211.511719 753.9375 212.25 754.675781 212.992188 Z M 754.675781 212.992188 "/>
<path style=" stroke:none;fill-rule:nonzero;fill:rgb(70.196078%,13.72549%,9.019608%);fill-opacity:1;" d="M 813.824219 180.449219 L 828.613281 220.386719 L 819.738281 220.386719 L 816.78125 211.507812 L 801.992188 211.507812 L 799.035156 220.386719 L 790.164062 220.386719 L 804.949219 180.449219 Z M 814.5625 204.855469 L 809.390625 190.0625 L 804.214844 204.855469 Z M 814.5625 204.855469 "/>
<path style=" stroke:none;fill-rule:nonzero;fill:rgb(70.196078%,13.72549%,9.019608%);fill-opacity:1;" d="M 838.222656 212.992188 C 838.222656 213.730469 838.964844 214.46875 839.703125 214.46875 C 840.441406 215.210938 841.179688 215.210938 841.921875 215.210938 C 842.660156 215.210938 843.398438 215.210938 844.136719 215.210938 C 844.878906 215.210938 845.617188 215.210938 845.617188 215.210938 C 846.355469 215.210938 847.09375 215.210938 847.09375 214.46875 C 847.835938 214.46875 847.835938 213.730469 848.574219 212.992188 C 848.574219 212.25 849.3125 212.25 849.3125 211.511719 C 849.3125 210.035156 848.574219 209.292969 847.09375 208.554688 C 845.617188 207.816406 843.398438 207.074219 840.441406 207.074219 C 838.964844 207.074219 838.222656 206.335938 836.746094 206.335938 C 836.007812 206.335938 834.527344 205.597656 833.789062 204.859375 C 833.050781 204.117188 832.3125 203.378906 831.570312 202.640625 C 830.832031 201.898438 830.832031 200.421875 830.832031 199.683594 C 830.832031 197.464844 830.832031 195.984375 831.570312 195.246094 C 832.3125 193.765625 833.050781 193.027344 834.527344 192.289062 C 836.007812 191.546875 836.746094 190.808594 838.222656 190.808594 C 839.703125 190.808594 841.179688 190.070312 842.660156 190.070312 C 844.136719 190.070312 845.617188 190.070312 847.09375 190.808594 C 848.574219 190.808594 850.050781 191.546875 850.789062 192.289062 C 852.269531 193.027344 853.007812 193.765625 853.746094 195.246094 C 854.488281 196.722656 855.226562 198.203125 855.226562 199.683594 L 847.832031 199.683594 C 847.832031 198.203125 847.089844 197.464844 846.351562 196.722656 C 845.613281 195.984375 844.136719 195.984375 842.65625 195.984375 C 841.917969 195.984375 841.917969 195.984375 841.179688 195.984375 C 840.4375 195.984375 840.4375 195.984375 839.699219 195.984375 C 838.960938 195.984375 838.960938 196.722656 838.960938 196.722656 C 838.960938 196.722656 838.222656 197.464844 838.222656 198.203125 C 838.222656 198.941406 838.222656 199.683594 838.960938 199.683594 C 839.699219 200.421875 840.4375 200.421875 841.179688 200.421875 C 841.917969 200.421875 842.65625 201.160156 844.136719 201.160156 C 844.875 201.160156 846.351562 201.898438 847.089844 201.898438 C 848.570312 201.898438 849.308594 202.640625 850.789062 202.640625 C 852.265625 202.640625 853.003906 203.378906 853.746094 204.117188 C 854.484375 204.859375 855.222656 205.597656 855.960938 206.335938 C 856.703125 207.074219 856.703125 208.554688 856.703125 210.035156 C 856.703125 212.25 855.960938 213.730469 855.222656 214.46875 C 854.484375 215.949219 853.746094 216.6875 852.265625 217.425781 C 850.789062 218.167969 849.308594 218.90625 847.832031 218.90625 C 846.351562 218.90625 844.875 219.644531 842.65625 219.644531 C 841.179688 219.644531 839.699219 219.644531 837.480469 218.90625 C 836.003906 218.90625 834.523438 218.167969 833.046875 217.425781 C 831.566406 216.6875 830.828125 215.949219 830.089844 214.46875 C 829.351562 212.992188 828.613281 211.511719 828.613281 209.292969 L 836.007812 209.292969 C 837.484375 211.511719 837.484375 212.25 838.222656 212.992188 Z M 838.222656 212.992188 "/>
<path style=" stroke:none;fill-rule:nonzero;fill:rgb(70.196078%,13.72549%,9.019608%);fill-opacity:1;" d="M 867.800781 212.992188 C 867.800781 213.730469 868.539062 214.46875 869.277344 214.46875 C 870.015625 215.210938 870.757812 215.210938 871.496094 215.210938 C 872.234375 215.210938 872.972656 215.210938 873.710938 215.210938 C 874.453125 215.210938 875.191406 215.210938 875.191406 215.210938 C 875.929688 215.210938 876.667969 215.210938 876.667969 214.46875 C 877.410156 214.46875 877.410156 213.730469 878.148438 212.992188 C 878.148438 212.25 878.886719 212.25 878.886719 211.511719 C 878.886719 210.035156 878.148438 209.292969 876.667969 208.554688 C 875.191406 207.816406 872.972656 207.074219 870.015625 207.074219 C 868.539062 207.074219 867.800781 206.335938 866.320312 206.335938 C 865.582031 206.335938 864.101562 205.597656 863.363281 204.859375 C 862.625 204.117188 861.886719 203.378906 861.144531 202.640625 C 860.40625 201.898438 860.40625 200.421875 860.40625 199.683594 C 860.40625 197.464844 861.144531 195.984375 861.144531 195.246094 C 861.886719 193.765625 862.625 193.027344 864.101562 192.289062 C 865.582031 191.546875 866.320312 190.808594 867.800781 190.808594 C 869.277344 190.808594 870.757812 190.070312 872.234375 190.070312 C 873.710938 190.070312 875.191406 190.070312 876.667969 190.808594 C 878.148438 190.808594 879.625 191.546875 880.367188 192.289062 C 881.84375 193.027344 882.582031 193.765625 883.324219 195.246094 C 884.0625 196.722656 884.800781 198.203125 884.800781 199.683594 L 877.40625 199.683594 C 877.40625 198.203125 876.667969 197.464844 875.925781 196.722656 C 875.1875 195.984375 873.710938 195.984375 872.230469 195.984375 C 871.492188 195.984375 871.492188 195.984375 870.753906 195.984375 C 870.011719 195.984375 870.011719 195.984375 869.273438 195.984375 C 868.535156 195.984375 868.535156 196.722656 868.535156 196.722656 C 868.535156 196.722656 867.796875 197.464844 867.796875 198.203125 C 867.796875 198.941406 867.796875 199.683594 868.535156 199.683594 C 869.273438 200.421875 870.011719 200.421875 870.753906 200.421875 C 871.492188 200.421875 872.230469 201.160156 873.710938 201.160156 C 874.449219 201.160156 875.925781 201.898438 876.667969 201.898438 C 878.144531 201.898438 878.882812 202.640625 880.363281 202.640625 C 881.101562 202.640625 882.582031 203.378906 883.320312 204.117188 C 884.058594 204.859375 884.796875 205.597656 885.535156 206.335938 C 886.277344 207.074219 886.277344 208.554688 886.277344 210.035156 C 886.277344 212.25 885.535156 213.730469 884.796875 214.46875 C 884.058594 215.949219 883.320312 216.6875 881.839844 217.425781 C 880.363281 218.167969 878.882812 218.90625 877.40625 218.90625 C 875.925781 218.90625 874.449219 219.644531 872.230469 219.644531 C 870.753906 219.644531 869.273438 219.644531 867.058594 218.90625 C 865.578125 218.90625 864.101562 218.167969 862.621094 217.425781 C 861.144531 216.6875 860.402344 215.949219 859.664062 214.46875 C 858.925781 212.992188 858.1875 211.511719 858.1875 209.292969 L 865.582031 209.292969 C 867.800781 211.511719 867.800781 212.25 867.800781 212.992188 Z M 867.800781 212.992188 "/>
<path style=" stroke:none;fill-rule:nonzero;fill:rgb(70.196078%,13.72549%,9.019608%);fill-opacity:1;" d="M 891.460938 199.679688 C 892.199219 197.460938 892.9375 195.980469 894.417969 194.503906 C 895.894531 193.023438 897.375 192.285156 898.851562 191.546875 C 900.332031 190.804688 902.546875 190.804688 904.765625 190.804688 C 906.984375 190.804688 909.199219 190.804688 910.679688 191.546875 C 912.15625 192.285156 914.375 193.023438 915.113281 194.503906 C 916.59375 195.980469 917.332031 197.460938 918.070312 199.679688 C 918.8125 201.898438 918.8125 203.375 918.8125 205.59375 C 918.8125 207.8125 918.8125 210.03125 918.070312 211.507812 C 917.332031 213.726562 916.59375 215.207031 915.113281 215.945312 C 913.636719 217.425781 912.15625 218.164062 910.679688 218.902344 C 909.199219 219.640625 906.984375 219.640625 904.765625 219.640625 C 902.546875 219.640625 900.332031 219.640625 898.851562 218.902344 C 897.375 218.164062 895.15625 217.425781 894.417969 215.945312 C 892.9375 214.464844 892.199219 212.988281 891.460938 211.507812 C 890.722656 209.289062 890.722656 207.8125 890.722656 205.59375 C 890.722656 203.375 890.722656 201.15625 891.460938 199.679688 Z M 898.851562 209.289062 C 898.851562 210.03125 899.589844 211.507812 900.332031 212.25 C 901.070312 212.988281 901.808594 213.726562 902.546875 214.464844 C 903.289062 215.207031 904.765625 215.207031 906.246094 215.207031 C 907.722656 215.207031 908.460938 215.207031 909.941406 214.464844 C 910.679688 213.726562 911.417969 212.988281 912.15625 212.25 C 912.898438 211.507812 912.898438 210.03125 913.636719 209.289062 C 913.636719 208.550781 913.636719 207.074219 913.636719 205.59375 C 913.636719 204.113281 913.636719 203.375 913.636719 201.898438 C 913.636719 200.417969 912.898438 199.679688 912.15625 198.9375 C 911.417969 198.199219 910.679688 197.460938 909.941406 196.722656 C 909.199219 195.980469 907.722656 195.980469 906.246094 195.980469 C 904.765625 195.980469 904.027344 195.980469 902.546875 196.722656 C 901.808594 197.460938 901.070312 198.199219 900.332031 198.9375 C 899.589844 199.679688 899.589844 200.417969 898.851562 201.898438 C 898.851562 203.375 898.851562 204.113281 898.851562 205.59375 C 898.851562 207.074219 898.851562 207.8125 898.851562 209.289062 Z M 898.851562 209.289062 "/>
<path style=" stroke:none;fill-rule:nonzero;fill:rgb(70.196078%,13.72549%,9.019608%);fill-opacity:1;" d="M 939.519531 196.722656 C 938.039062 196.722656 937.300781 196.722656 936.5625 197.460938 C 935.820312 198.199219 935.082031 198.9375 934.34375 199.679688 C 933.605469 200.417969 933.605469 201.898438 932.867188 202.636719 C 932.867188 203.375 932.867188 204.855469 932.867188 205.59375 C 932.867188 206.332031 932.867188 207.8125 932.867188 208.550781 C 932.867188 209.289062 933.605469 210.769531 933.605469 211.507812 C 934.34375 212.25 935.082031 212.988281 935.820312 213.726562 C 936.5625 214.464844 938.039062 214.464844 938.777344 214.464844 C 940.996094 214.464844 942.476562 213.726562 943.214844 212.988281 C 943.953125 212.25 944.691406 210.769531 945.433594 208.550781 L 952.824219 208.550781 C 952.085938 212.25 950.605469 215.207031 948.390625 217.425781 C 946.171875 219.644531 942.476562 220.386719 938.777344 220.386719 C 936.558594 220.386719 934.339844 220.386719 932.863281 219.644531 C 931.382812 218.90625 929.167969 218.167969 928.425781 216.6875 C 926.949219 215.210938 926.210938 213.730469 925.46875 212.25 C 924.730469 210.773438 924.730469 208.554688 924.730469 206.335938 C 924.730469 204.117188 924.730469 201.898438 925.46875 200.421875 C 926.210938 198.203125 926.949219 196.722656 928.425781 195.246094 C 929.90625 193.765625 931.382812 193.027344 932.863281 192.289062 C 934.339844 191.546875 936.558594 190.808594 938.777344 190.808594 C 940.253906 190.808594 942.472656 190.808594 943.949219 191.546875 C 945.429688 192.289062 946.90625 193.027344 948.386719 193.765625 C 949.863281 194.507812 950.601562 195.984375 951.34375 197.464844 C 952.082031 198.941406 952.820312 200.421875 952.820312 202.640625 L 944.6875 202.640625 C 944.691406 198.199219 942.476562 196.722656 939.519531 196.722656 Z M 939.519531 196.722656 "/>
<path style=" stroke:none;fill-rule:nonzero;fill:rgb(70.196078%,13.72549%,9.019608%);fill-opacity:1;" d="M 958 187.105469 L 958 180.453125 L 966.136719 180.453125 L 966.136719 187.105469 Z M 966.136719 191.542969 L 966.136719 220.386719 L 958 220.386719 L 958 191.542969 Z M 966.136719 191.542969 "/>
<path style=" stroke:none;fill-rule:nonzero;fill:rgb(70.196078%,13.72549%,9.019608%);fill-opacity:1;" d="M 972.789062 195.242188 C 973.527344 193.765625 975.007812 193.023438 975.746094 192.285156 C 977.222656 191.546875 978.703125 190.804688 980.179688 190.804688 C 981.660156 190.804688 983.136719 190.066406 984.617188 190.066406 C 986.09375 190.066406 987.574219 190.066406 989.050781 190.066406 C 990.53125 190.066406 992.007812 190.804688 993.488281 191.546875 C 994.964844 192.285156 995.703125 193.023438 996.445312 193.765625 C 997.183594 194.503906 997.921875 195.980469 997.921875 198.199219 L 997.921875 212.992188 C 997.921875 214.46875 997.921875 215.210938 997.921875 216.6875 C 997.921875 218.167969 998.660156 218.90625 998.660156 219.644531 L 990.527344 219.644531 C 990.527344 218.90625 990.527344 218.90625 990.527344 218.167969 C 990.527344 217.425781 990.527344 217.425781 990.527344 216.6875 C 989.046875 218.167969 987.570312 218.90625 986.089844 219.644531 C 984.613281 220.386719 982.394531 220.386719 980.917969 220.386719 C 979.4375 220.386719 977.960938 220.386719 977.222656 219.644531 C 975.742188 219.644531 975.003906 218.90625 974.265625 218.167969 C 973.523438 217.425781 972.785156 216.6875 972.046875 215.210938 C 971.308594 214.46875 971.308594 212.992188 971.308594 211.511719 C 971.308594 210.035156 971.308594 208.554688 972.046875 207.816406 C 972.785156 207.074219 973.523438 205.597656 974.265625 205.597656 C 975.003906 204.859375 976.480469 204.859375 977.222656 204.117188 C 978.699219 204.117188 979.4375 203.378906 980.917969 203.378906 C 982.394531 203.378906 983.132812 203.378906 984.613281 202.640625 C 986.089844 202.640625 986.832031 202.640625 987.570312 201.898438 C 988.308594 201.898438 989.046875 201.160156 989.789062 201.160156 C 990.527344 200.421875 990.527344 200.421875 990.527344 198.941406 C 990.527344 198.203125 990.527344 197.464844 989.789062 196.722656 C 989.789062 195.984375 989.046875 195.984375 988.308594 195.246094 C 987.570312 195.246094 987.570312 194.507812 986.832031 194.507812 C 986.089844 194.507812 985.351562 194.507812 984.613281 194.507812 C 983.132812 194.507812 981.65625 194.507812 980.917969 195.246094 C 980.179688 195.984375 979.4375 196.722656 979.4375 198.941406 L 971.304688 198.941406 C 972.050781 198.199219 972.050781 196.722656 972.789062 195.242188 Z M 989.054688 207.074219 C 988.316406 207.074219 988.316406 207.074219 987.578125 207.8125 C 986.835938 207.8125 986.097656 207.8125 986.097656 207.8125 C 985.359375 207.8125 984.621094 207.8125 983.878906 207.8125 C 983.140625 207.8125 982.402344 207.8125 982.402344 208.550781 C 981.664062 208.550781 981.664062 209.289062 980.921875 209.289062 C 980.183594 209.289062 980.183594 210.03125 980.183594 210.769531 C 980.183594 211.507812 979.445312 211.507812 979.445312 212.25 C 979.445312 212.988281 979.445312 213.726562 980.183594 213.726562 C 980.183594 214.464844 980.921875 214.464844 980.921875 215.207031 C 981.664062 215.207031 981.664062 215.945312 982.402344 215.945312 C 983.140625 215.945312 983.878906 215.945312 983.878906 215.945312 C 985.359375 215.945312 986.835938 215.945312 987.578125 215.207031 C 988.316406 214.464844 989.054688 213.726562 989.792969 212.988281 C 990.53125 212.25 990.53125 211.507812 990.53125 210.769531 C 990.53125 210.03125 990.53125 209.289062 990.53125 209.289062 L 990.53125 206.332031 C 989.792969 206.332031 989.054688 206.332031 989.054688 207.074219 Z M 989.054688 207.074219 "/>
<path style=" stroke:none;fill-rule:nonzero;fill:rgb(70.196078%,13.72549%,9.019608%);fill-opacity:1;" d="M 1020.109375 191.542969 L 1020.109375 196.71875 L 1014.195312 196.71875 L 1014.195312 210.769531 C 1014.195312 212.25 1014.195312 212.988281 1014.9375 213.726562 C 1015.675781 214.464844 1016.414062 214.464844 1017.894531 214.464844 C 1018.632812 214.464844 1018.632812 214.464844 1019.371094 214.464844 C 1020.109375 214.464844 1020.109375 214.464844 1020.851562 214.464844 L 1020.851562 220.382812 C 1020.109375 220.382812 1019.371094 220.382812 1018.632812 220.382812 C 1017.894531 220.382812 1017.152344 220.382812 1016.414062 220.382812 C 1014.9375 220.382812 1014.195312 220.382812 1012.71875 220.382812 C 1011.980469 220.382812 1010.5 219.640625 1009.761719 219.640625 C 1009.023438 218.902344 1008.285156 218.164062 1007.542969 217.425781 C 1006.804688 216.683594 1006.804688 215.207031 1006.804688 213.726562 L 1006.804688 196.71875 L 1001.628906 196.71875 L 1001.628906 191.542969 L 1006.804688 191.542969 L 1006.804688 182.667969 L 1014.941406 182.667969 L 1014.941406 191.542969 Z M 1020.109375 191.542969 "/>
<path style=" stroke:none;fill-rule:nonzero;fill:rgb(70.196078%,13.72549%,9.019608%);fill-opacity:1;" d="M 1023.808594 187.105469 L 1023.808594 180.453125 L 1031.941406 180.453125 L 1031.941406 187.105469 Z M 1031.9375 191.542969 L 1031.9375 220.386719 L 1023.804688 220.386719 L 1023.804688 191.542969 Z M 1031.9375 191.542969 "/>
<path style=" stroke:none;fill-rule:nonzero;fill:rgb(70.196078%,13.72549%,9.019608%);fill-opacity:1;" d="M 1038.59375 199.679688 C 1039.332031 197.460938 1040.074219 195.980469 1041.550781 194.503906 C 1043.03125 193.023438 1044.507812 192.285156 1045.988281 191.546875 C 1047.464844 190.804688 1049.683594 190.804688 1051.898438 190.804688 C 1054.117188 190.804688 1056.335938 190.804688 1057.8125 191.546875 C 1059.292969 192.285156 1061.511719 193.023438 1062.25 194.503906 C 1063.726562 195.980469 1064.464844 197.460938 1065.207031 199.679688 C 1065.945312 201.898438 1065.945312 203.375 1065.945312 205.59375 C 1065.945312 207.8125 1065.945312 210.03125 1065.207031 211.507812 C 1064.464844 213.726562 1063.726562 215.207031 1062.25 215.945312 C 1060.769531 217.425781 1059.292969 218.164062 1057.8125 218.902344 C 1056.335938 219.640625 1054.117188 219.640625 1051.898438 219.640625 C 1049.683594 219.640625 1047.464844 219.640625 1045.988281 218.902344 C 1044.507812 218.164062 1042.289062 217.425781 1041.550781 215.945312 C 1040.074219 214.464844 1039.332031 212.988281 1038.59375 211.507812 C 1037.855469 209.289062 1037.855469 207.8125 1037.855469 205.59375 C 1037.855469 203.375 1037.855469 201.15625 1038.59375 199.679688 Z M 1045.246094 209.289062 C 1045.246094 210.03125 1045.988281 211.507812 1046.726562 212.25 C 1047.464844 212.988281 1048.203125 213.726562 1048.941406 214.464844 C 1049.683594 215.207031 1051.160156 215.207031 1052.640625 215.207031 C 1054.117188 215.207031 1054.855469 215.207031 1056.335938 214.464844 C 1057.074219 213.726562 1057.8125 212.988281 1058.554688 212.25 C 1059.292969 211.507812 1059.292969 210.03125 1060.03125 209.289062 C 1060.03125 208.550781 1060.03125 207.074219 1060.03125 205.59375 C 1060.03125 204.113281 1060.03125 203.375 1060.03125 201.898438 C 1060.03125 200.417969 1059.292969 199.679688 1058.554688 198.9375 C 1057.8125 198.199219 1057.074219 197.460938 1056.335938 196.722656 C 1055.597656 195.980469 1054.117188 195.980469 1052.640625 195.980469 C 1051.160156 195.980469 1050.421875 195.980469 1048.941406 196.722656 C 1048.203125 197.460938 1047.464844 198.199219 1046.726562 198.9375 C 1045.988281 199.679688 1045.988281 200.417969 1045.246094 201.898438 C 1045.246094 203.375 1045.246094 204.113281 1045.246094 205.59375 C 1045.246094 207.074219 1045.246094 207.8125 1045.246094 209.289062 Z M 1045.246094 209.289062 "/>
<path style=" stroke:none;fill-rule:nonzero;fill:rgb(70.196078%,13.72549%,9.019608%);fill-opacity:1;" d="M 1080 191.542969 L 1080 195.238281 C 1080.738281 193.761719 1082.21875 192.28125 1083.695312 191.542969 C 1085.175781 190.804688 1086.652344 190.0625 1088.871094 190.0625 C 1091.085938 190.0625 1092.566406 190.0625 1094.042969 190.804688 C 1095.523438 191.542969 1096.261719 192.28125 1097 193.019531 C 1097.742188 193.761719 1098.480469 195.238281 1098.480469 196.71875 C 1098.480469 198.195312 1099.21875 199.675781 1099.21875 201.894531 L 1099.21875 219.640625 L 1091.085938 219.640625 L 1091.085938 203.371094 C 1091.085938 201.15625 1091.085938 198.9375 1089.605469 198.195312 C 1088.867188 196.71875 1087.386719 196.71875 1085.910156 196.71875 C 1083.691406 196.71875 1082.214844 197.457031 1081.476562 198.9375 C 1080.734375 200.414062 1079.996094 202.632812 1079.996094 205.589844 L 1079.996094 220.382812 L 1071.863281 220.382812 L 1071.863281 191.539062 C 1071.863281 191.542969 1080 191.542969 1080 191.542969 Z M 1080 191.542969 "/>
</g>
</svg>
